<svg version="1.1" id="Layer_1" xmlns="http://www.w3.org/2000/svg" xmlns:xlink="http://www.w3.org/1999/xlink" x="0px" y="0px"
	 width="100%" viewBox="0 0 1004 591" enable-background="new 0 0 1004 591" xml:space="preserve">
<path fill="#0CC0DF" opacity="1.000000" stroke="none" 
	d="
M592.000000,592.000000 
	C394.666656,592.000000 197.833328,592.000000 1.000000,592.000000 
	C1.000000,395.000000 1.000000,198.000000 1.000000,1.000000 
	C335.666656,1.000000 670.333313,1.000000 1005.000000,1.000000 
	C1005.000000,198.000000 1005.000000,395.000000 1005.000000,592.000000 
	C867.500000,592.000000 730.000000,592.000000 592.000000,592.000000 
M141.774002,266.013123 
	C179.504791,251.968277 200.913803,215.281830 193.470596,177.425964 
	C185.412643,136.443619 150.577530,110.400536 108.473831,113.881508 
	C63.353096,117.611916 30.342833,161.908508 39.512672,206.202240 
	C41.905479,217.760376 46.453983,228.300018 53.391197,238.231003 
	C38.303764,253.244247 23.430349,268.032471 8.578745,282.842529 
	C7.167800,284.249542 5.717101,285.671204 4.588893,287.296997 
	C1.226186,292.142792 1.814182,298.420044 5.836144,302.373444 
	C10.184226,306.647400 16.421579,307.251923 21.338530,303.720398 
	C22.947735,302.564606 24.346062,301.095581 25.755997,299.685028 
	C40.586510,284.848022 55.399807,269.993805 69.706627,255.656647 
	C77.443954,259.252136 84.638374,262.595367 91.969818,266.874817 
	C91.979492,281.369049 91.966347,295.863342 92.003624,310.357513 
	C92.080406,340.212769 107.281143,361.732086 135.446930,371.944305 
	C158.762115,380.397797 182.392014,381.085938 206.060120,373.994965 
	C236.775589,364.792572 257.087128,342.762238 256.258331,307.122009 
	C255.398697,270.156708 256.070221,233.155914 256.064606,196.170639 
	C256.063660,190.006775 256.175018,183.837570 255.957306,177.680649 
	C255.769669,172.374176 253.443771,169.977432 248.200272,169.899048 
	C237.207230,169.734711 226.209625,169.794983 215.214706,169.875305 
	C210.459000,169.910065 207.813995,172.449127 207.512589,177.243988 
	C207.387344,179.236633 207.359818,181.238037 207.359375,183.235489 
	C207.350876,222.219971 207.360016,261.204468 207.339600,300.188934 
	C207.337952,303.351379 207.387650,306.543121 207.003159,309.670807 
	C205.731598,320.014557 200.611038,327.781799 190.940689,332.074036 
	C181.766663,336.145966 172.189941,336.214569 162.568726,334.036530 
	C150.221298,331.241364 141.510666,321.584320 141.093643,309.092346 
	C140.616089,294.786987 141.014725,280.452423 141.774002,266.013123 
M680.997192,213.500000 
	C680.996887,263.155823 680.994202,312.811615 680.998291,362.467438 
	C680.999084,372.193451 682.718201,373.988190 692.205566,373.994385 
	C721.699219,374.013611 751.203735,374.463959 780.680969,373.769104 
	C792.193420,373.497742 804.043518,371.965302 815.050476,368.690430 
	C851.728638,357.777679 867.051453,314.855408 845.407532,284.259094 
	C840.869263,277.843842 834.007812,273.072052 828.232422,267.557800 
	C830.028931,266.160431 832.735046,264.471497 834.935791,262.276001 
	C848.943604,248.301147 851.645691,231.121323 847.300049,212.815445 
	C841.563721,188.650589 823.897888,176.361664 800.959656,172.360565 
	C785.514709,169.666519 769.493774,169.905792 753.715210,169.584763 
	C733.061584,169.164520 712.392578,169.416016 691.730896,169.521072 
	C682.901428,169.565948 681.012695,171.566406 681.000549,180.007004 
	C680.984985,190.837982 680.996643,201.669006 680.997192,213.500000 
M604.026794,176.434555 
	C593.480103,174.278519 582.988525,170.658157 572.375732,170.258820 
	C547.091431,169.307465 521.749878,169.837738 496.431519,169.856262 
	C488.194855,169.862274 486.152466,172.008621 486.141815,180.271759 
	C486.114288,201.592819 486.131104,222.913971 486.130890,244.235077 
	C486.130432,283.712463 486.119781,323.189819 486.138184,362.667206 
	C486.142578,372.079071 488.130402,373.997467 497.627136,374.001678 
	C506.455414,374.005615 515.283691,374.012665 524.111938,373.999603 
	C532.818726,373.986725 534.927490,371.878174 534.946472,363.017914 
	C534.977905,348.359741 534.955566,333.701385 534.955872,319.043121 
	C534.955933,317.301971 534.955933,315.560822 534.955933,313.520233 
	C543.264893,313.520233 550.767517,313.833405 558.233643,313.444214 
	C568.520325,312.908051 578.925354,312.651031 589.019775,310.832245 
	C609.724915,307.101715 626.811401,297.203125 637.510620,278.324677 
	C645.068848,264.988556 647.098816,250.394165 645.923828,235.351059 
	C643.768860,207.761215 630.780029,187.627502 604.026794,176.434555 
M381.499969,213.168198 
	C400.828064,213.168030 420.156158,213.189133 439.484222,213.158661 
	C449.105988,213.143494 450.910889,211.327026 450.936432,201.846924 
	C450.954376,195.182098 450.949768,188.517166 450.938202,181.852295 
	C450.920227,171.511368 449.319733,169.842728 439.177277,169.838943 
	C396.522064,169.822998 353.866852,169.822693 311.211639,169.840195 
	C300.868866,169.844452 299.518127,171.238251 299.513947,181.815994 
	C299.500092,216.806595 299.509857,251.797211 299.510284,286.787811 
	C299.510590,311.947723 299.489929,337.107666 299.520630,362.267548 
	C299.532959,372.364838 301.154999,373.975464 311.055450,373.996429 
	C320.219635,374.015869 329.383850,374.010162 338.548065,373.997742 
	C346.733032,373.986633 348.093994,372.688507 348.110291,364.427979 
	C348.154358,342.100739 348.130432,319.773346 348.133392,297.446014 
	C348.133636,295.703888 348.133453,293.961792 348.133453,292.000641 
	C350.792603,292.000641 352.618805,292.000671 354.445007,292.000641 
	C378.771820,292.000214 403.098663,292.027802 427.425385,291.983734 
	C435.645325,291.968842 437.850708,289.741547 437.914948,281.637024 
	C437.966461,275.139191 437.932770,268.640594 437.926056,262.142334 
	C437.914673,251.105927 436.329559,249.501968 425.177338,249.491074 
	C401.517059,249.467941 377.856689,249.491821 354.196411,249.467957 
	C352.285278,249.466034 350.374359,249.245285 348.584595,249.133774 
	C348.584595,236.833588 348.584595,225.126144 348.584595,213.168213 
	C359.522583,213.168213 370.011261,213.168213 381.499969,213.168198 
M914.314880,316.952606 
	C913.665039,316.806915 913.018616,316.643341 912.364868,316.518127 
	C897.923950,313.753204 885.377441,319.306854 879.799622,330.928497 
	C873.086487,344.915833 875.965271,364.607452 886.144226,373.042603 
	C888.414490,374.923981 891.047241,376.650421 893.804749,377.611786 
	C904.906860,381.482361 916.063293,381.023865 927.019653,376.912750 
	C928.230835,376.458282 929.645508,374.801086 929.784302,373.568695 
	C930.164795,370.189209 929.915405,366.738800 929.915405,362.838440 
	C927.748901,363.646118 926.260742,364.518829 924.682922,364.733673 
	C918.148376,365.623505 911.554565,367.122650 905.043457,366.864227 
	C897.678040,366.571930 893.088928,359.482483 894.591003,352.146515 
	C907.283752,352.146515 920.064209,352.146515 932.778198,352.146515 
	C935.430847,333.778473 929.563110,322.298523 914.314880,316.952606 
M955.948486,341.663849 
	C959.726318,345.526337 959.087219,349.013794 955.989380,353.264771 
	C950.071655,361.385010 944.765869,369.951233 938.758057,379.007751 
	C944.538940,379.007751 949.340637,378.833191 954.121399,379.073181 
	C956.994080,379.217407 958.646423,378.237518 960.073303,375.752533 
	C963.419067,369.925507 967.073486,364.275726 970.993347,357.921448 
	C975.050842,364.527740 978.548157,370.338501 982.191223,376.056366 
	C982.928772,377.213776 984.178345,378.804596 985.257507,378.857544 
	C990.956543,379.137207 996.676453,378.988678 1003.198853,378.988678 
	C995.840820,367.929840 989.052307,357.726990 982.188599,347.411072 
	C988.820190,337.393677 995.345154,327.537323 1002.286926,317.051392 
	C996.307861,317.051392 991.458496,316.762390 986.674133,317.194061 
	C984.768860,317.365967 982.387207,318.696259 981.294373,320.252136 
	C977.717834,325.344177 974.634216,330.782379 970.998291,336.675385 
	C967.272705,330.574860 964.085205,325.159851 960.662598,319.897736 
	C959.872375,318.682800 958.318420,317.256897 957.046082,317.186218 
	C951.639099,316.885895 946.205811,317.058685 939.774841,317.058685 
	C945.386353,325.589661 950.469116,333.316772 955.948486,341.663849 
M724.494263,474.380310 
	C724.595520,472.052399 724.224121,469.562897 724.947449,467.447693 
	C725.527283,465.751984 727.435669,464.510559 728.754456,463.067505 
	C729.868713,464.607635 731.767700,466.063385 731.944153,467.704376 
	C732.400574,471.948669 732.097107,476.274658 732.097107,480.638184 
	C734.525208,480.638184 736.386169,480.638184 738.825806,480.638184 
	C738.825806,475.943359 738.472168,471.586761 739.010681,467.343384 
	C739.208923,465.780975 741.512878,464.485779 742.856323,463.068665 
	C743.952881,464.624634 745.819763,466.098755 745.995483,467.752563 
	C746.446289,471.994843 746.146057,476.316925 746.146057,480.811401 
	C748.525574,480.811401 750.304443,480.811401 752.611328,480.811401 
	C752.611328,475.695557 752.858459,470.720306 752.552063,465.779358 
	C752.116211,458.750275 746.350403,455.839630 740.084167,459.208405 
	C739.152588,459.709259 737.544189,460.682678 737.263184,460.406281 
	C731.648743,454.884460 724.869934,461.238129 719.037659,458.549774 
	C718.923950,458.497345 718.572632,458.960175 718.344604,459.188812 
	C718.344604,466.306885 718.344604,473.424927 718.344604,480.782227 
	C720.367859,480.782227 722.135254,480.782227 724.493591,480.782227 
	C724.493591,478.884979 724.493591,477.094208 724.494263,474.380310 
M544.248474,458.014709 
	C539.982788,458.677002 535.785034,460.338867 531.239990,457.943146 
	C531.239990,466.131134 531.239990,473.370850 531.239990,480.735504 
	C533.241455,480.735504 534.971375,480.735504 537.297913,480.735504 
	C537.297913,476.348206 536.845764,472.154419 537.497620,468.139954 
	C537.802063,466.264862 540.242065,464.736542 541.714111,463.051025 
	C542.803101,464.814117 544.612305,466.492004 544.833069,468.357819 
	C545.312561,472.410645 544.980957,476.559448 544.980957,480.722900 
	C547.299561,480.722900 549.034973,480.722900 551.331665,480.722900 
	C551.331665,476.320129 550.877991,472.124207 551.532654,468.108978 
	C551.836975,466.242859 554.294495,464.727783 555.776001,463.053619 
	C556.856445,464.818481 558.651917,466.499573 558.870605,468.365448 
	C559.346191,472.423004 559.017395,476.574860 559.017395,480.786682 
	C561.361328,480.786682 563.130066,480.786682 565.183411,480.786682 
	C565.183411,475.425110 565.393677,470.274750 565.128418,465.149017 
	C564.820251,459.196075 559.700439,456.284546 554.084778,458.669159 
	C552.770813,459.227081 551.609497,460.144379 550.872986,460.594086 
	C548.633850,459.618683 546.845398,458.839600 544.248474,458.014709 
M147.975662,474.503632 
	C147.999146,472.505066 147.906281,470.496674 148.073883,468.510284 
	C148.313583,465.669373 149.209564,463.050415 152.671494,463.094482 
	C156.259598,463.140167 156.178558,466.006927 156.211075,468.534515 
	C156.263489,472.609467 156.225159,476.685608 156.225159,480.696228 
	C158.813187,480.696228 160.562531,480.696228 162.644531,480.696228 
	C162.644531,475.410950 162.927841,470.421967 162.571075,465.479187 
	C162.148346,459.622772 157.626984,456.723511 151.972427,458.285187 
	C150.730179,458.628265 149.569809,459.267822 147.815277,460.004456 
	C147.815277,456.350769 147.815277,453.108734 147.815277,449.768860 
	C145.597382,449.768860 143.868103,449.768860 142.067322,449.768860 
	C142.067322,460.319275 142.067322,470.530640 142.067322,481.045044 
	C144.176346,480.943451 145.914337,480.859711 147.975616,480.760406 
	C147.975616,478.718201 147.975616,477.076294 147.975662,474.503632 
M49.370018,451.294891 
	C46.079155,451.294891 42.788296,451.294891 39.229931,451.294891 
	C39.229931,461.413300 39.229931,470.974487 39.229931,480.729919 
	C44.872726,480.729919 50.272774,480.729919 55.971989,480.729919 
	C55.892406,479.024017 55.826900,477.619843 55.737652,475.706726 
	C52.169971,475.706726 48.923187,475.706726 45.626038,475.706726 
	C45.626038,472.969086 45.626038,470.764313 45.626038,468.402405 
	C48.949398,468.249115 51.878189,468.114014 54.871132,467.975983 
	C54.871132,466.190979 54.871132,464.799744 54.871132,462.790039 
	C51.514851,462.790039 48.456993,462.790039 45.171787,462.790039 
	C45.289856,460.542023 45.374470,458.930939 45.487034,456.787720 
	C49.023109,456.787720 52.276150,456.787720 55.982677,456.787720 
	C55.881599,454.683441 55.808197,453.155273 55.718845,451.295074 
	C53.597855,451.295074 51.950771,451.295074 49.370018,451.294891 
M641.963257,458.066559 
	C640.155212,458.839142 638.347107,459.611755 637.391846,460.019958 
	C635.057434,459.237579 633.225037,458.623444 631.001282,457.878174 
	C631.001282,466.214478 631.001282,473.449554 631.001282,480.752747 
	C633.042725,480.752747 634.792786,480.752747 637.069336,480.752747 
	C637.069336,476.374573 636.906128,472.242767 637.125000,468.131317 
	C637.278625,465.245911 638.681213,462.467407 641.960632,463.292511 
	C643.382202,463.650177 644.862915,466.501129 645.078735,468.363098 
	C645.548523,472.417786 645.223755,476.564575 645.223755,480.794067 
	C647.634705,480.794067 649.408752,480.794067 651.299133,480.794067 
	C651.465515,479.966187 651.696960,479.334869 651.702637,478.701508 
	C651.738342,474.713806 651.856262,470.720337 651.695862,466.738892 
	C651.440735,460.408020 649.256165,458.365753 641.963257,458.066559 
M397.982330,458.090515 
	C389.693634,457.891022 385.631348,461.148621 385.087433,468.431030 
	C384.375153,477.968811 390.892914,483.075989 401.046387,481.073578 
	C404.364716,480.419128 405.654388,478.930176 404.257507,475.646484 
	C393.856445,477.409607 392.744293,477.039551 392.380219,471.262726 
	C396.797852,471.262726 401.204102,471.262726 405.535767,471.262726 
	C406.387909,463.564423 404.933502,460.891205 397.982330,458.090515 
M958.319092,480.895538 
	C961.190735,476.889862 964.405945,482.669769 967.805969,480.240692 
	C967.805969,476.787354 967.818481,472.990753 967.802551,469.194244 
	C967.785706,465.184021 968.136902,460.844849 963.500244,458.962585 
	C958.846985,457.073639 954.228821,457.480133 949.943481,460.017090 
	C950.521851,463.442108 951.905212,464.083344 954.890991,463.207794 
	C957.423523,462.465179 961.075562,461.452698 961.011169,466.476471 
	C957.872742,466.989105 954.842529,467.128418 952.052795,468.019958 
	C947.425110,469.498871 945.495300,475.679932 949.036987,478.805878 
	C951.012390,480.549469 954.675171,480.381287 958.319092,480.895538 
M765.062256,463.035828 
	C770.528015,462.637756 770.528015,462.637756 770.614563,466.701355 
	C765.853760,467.618011 759.499695,465.866058 757.884949,472.598999 
	C757.353088,474.816406 758.515259,478.553101 760.238586,479.967377 
	C763.861694,482.940674 768.039368,481.502411 771.081970,479.336578 
	C773.373230,480.109436 775.211304,480.729431 777.806030,481.604645 
	C777.806030,476.850708 777.820862,473.064880 777.802002,469.279205 
	C777.782043,465.280273 778.183838,460.927582 773.583008,458.999298 
	C768.942139,457.054291 764.316284,457.494171 760.014465,459.933228 
	C759.884399,460.529785 759.754395,461.126373 759.624329,461.722931 
	C761.171631,462.217621 762.718933,462.712311 765.062256,463.035828 
M171.937210,463.764862 
	C175.215240,463.651428 179.448288,460.423889 181.605164,466.493713 
	C178.237656,466.944122 175.590866,467.115875 173.031128,467.681580 
	C168.774002,468.622375 166.916245,471.440277 167.587418,475.753174 
	C168.296768,480.311401 171.596329,482.183716 175.522278,481.223846 
	C179.333771,480.291992 182.862671,479.542603 186.628815,480.884369 
	C186.816498,480.951263 187.158920,480.583832 187.805801,480.188538 
	C187.805801,476.612030 187.818680,472.810547 187.803268,469.009216 
	C187.764709,459.502808 182.396057,455.776886 173.071426,458.520416 
	C169.908569,459.450989 169.359604,460.822968 171.937210,463.764862 
M262.034363,472.159149 
	C262.454468,478.792847 264.659943,481.528900 269.958130,481.328491 
	C274.131165,481.170685 278.285095,480.507904 282.612610,480.052002 
	C282.612610,473.298523 282.612610,465.911774 282.612610,458.521545 
	C280.611450,458.521545 279.008026,458.521545 276.540894,458.521545 
	C276.540894,463.045013 276.709198,467.330322 276.480072,471.594299 
	C276.334137,474.309479 274.874176,476.926514 271.834167,476.013855 
	C270.301331,475.553650 268.677887,472.912354 268.451569,471.088989 
	C267.946747,467.021881 268.293884,462.849030 268.293884,458.559937 
	C265.992889,458.559937 264.251984,458.559937 262.626465,458.559937 
	C262.377136,459.158905 262.149353,459.455170 262.144958,459.754730 
	C262.088776,463.583405 262.064575,467.412598 262.034363,472.159149 
M349.450989,471.146027 
	C349.416962,463.288361 346.548889,459.016144 340.687927,458.092682 
	C334.186920,457.068390 329.092834,460.361572 327.937439,466.335541 
	C326.455994,473.995636 329.718964,479.970459 336.030182,481.154205 
	C343.064850,482.473633 347.626526,479.308746 349.450989,471.146027 
M849.552185,475.790100 
	C849.977051,473.369080 850.831787,470.931976 850.741760,468.530304 
	C850.520203,462.623962 846.764404,458.637299 841.420166,458.037811 
	C835.488220,457.372375 830.900330,460.128510 829.360229,465.282745 
	C827.560425,471.306091 829.669312,477.669250 834.286743,480.147766 
	C839.316528,482.847595 845.207642,481.387482 849.552185,475.790100 
M522.841614,478.309906 
	C526.280457,474.017975 526.739746,469.212555 524.767578,464.280975 
	C522.874756,459.547791 518.975037,457.748016 514.006958,457.999695 
	C509.165253,458.244965 505.884857,460.605164 504.401611,465.227478 
	C502.713867,470.487061 504.297882,476.518555 507.969818,479.336212 
	C511.788177,482.266235 517.174866,482.079834 522.841614,478.309906 
M455.177521,481.221497 
	C463.173950,481.532166 467.277069,478.603516 468.068359,472.020447 
	C468.957550,464.622620 465.775116,459.285370 459.788727,458.134918 
	C453.584412,456.942596 448.485474,459.864594 446.887512,465.528015 
	C444.805267,472.907654 447.502289,478.477051 455.177521,481.221497 
M686.514038,481.037598 
	C694.068237,477.922241 696.830872,468.599518 692.079773,462.103333 
	C689.285950,458.283386 685.286743,457.461395 680.937134,458.160187 
	C676.800964,458.824646 674.087952,461.277740 672.903503,465.398651 
	C670.108032,475.124329 675.589478,481.874481 686.514038,481.037598 
M205.766220,477.609924 
	C210.376434,481.832397 216.363037,482.646790 220.758774,479.649506 
	C225.002701,476.755676 226.597015,469.714294 224.250412,464.228210 
	C222.208282,459.453979 217.488785,457.130646 211.867126,458.132141 
	C204.055588,459.523773 201.111847,467.989075 205.766220,477.609924 
M594.300598,464.722687 
	C593.586060,465.472046 592.987610,466.656342 592.133850,466.884247 
	C590.076599,467.433502 587.851746,467.342621 585.781250,467.858093 
	C581.644226,468.888062 580.345703,471.862549 580.902893,475.836395 
	C581.472473,479.898407 584.226074,481.588074 587.926086,481.316071 
	C590.446350,481.130829 592.897278,480.001617 594.254700,479.614868 
	C596.895935,480.280304 598.669678,480.727203 600.929016,481.296417 
	C600.929016,475.433197 601.005249,470.465302 600.905212,465.500946 
	C600.823730,461.454651 598.573303,458.649994 594.678040,458.307190 
	C590.914978,457.976074 587.055481,458.740540 582.991150,459.042084 
	C583.785583,462.797607 584.517090,464.382080 587.857300,463.280640 
	C589.613342,462.701538 591.871033,463.643738 594.300598,464.722687 
M823.965454,476.269653 
	C823.957764,472.781799 823.979736,469.293579 823.934448,465.806213 
	C823.885681,462.047974 822.149353,458.975739 818.451050,458.532440 
	C814.429443,458.050385 810.265686,458.753510 806.016541,458.946594 
	C806.731934,463.212250 807.893188,464.210358 811.026428,463.214569 
	C813.622009,462.389679 817.186035,461.509460 817.400757,466.542206 
	C812.480042,467.814331 805.794739,465.647461 804.122742,472.677124 
	C803.613831,474.816956 804.598755,478.353302 806.204224,479.746063 
	C809.971741,483.014404 814.233154,481.421906 817.263977,479.411896 
	C819.544373,480.066010 821.119324,480.859528 822.638184,480.763641 
	C823.153381,480.731110 823.526672,478.452881 823.965454,476.269653 
M104.147148,477.152649 
	C108.631645,481.744873 114.794037,482.770538 119.438591,479.697662 
	C123.601433,476.943573 125.276054,470.332733 123.213837,464.794250 
	C121.304367,459.665985 116.567741,457.134399 110.722610,458.118042 
	C103.035744,459.411621 100.009453,467.395325 104.147148,477.152649 
M893.463379,471.525238 
	C897.898254,471.525238 902.333191,471.525238 906.655151,471.525238 
	C907.577759,462.724213 904.503052,458.361145 897.874207,458.008209 
	C890.900879,457.636993 886.486023,461.951111 886.261475,469.355896 
	C885.997375,478.063202 892.157471,482.653076 901.805664,481.145599 
	C905.352844,480.591370 906.944885,479.185944 905.470520,475.539032 
	C895.900269,477.531647 895.045532,477.302795 893.463379,471.525238 
M792.034363,463.354248 
	C794.301575,463.458710 796.568726,463.563202 799.168518,463.682983 
	C799.569458,462.459717 800.018860,461.088684 800.457031,459.751770 
	C794.060120,456.782379 787.928101,457.668152 784.795593,461.845398 
	C781.756287,465.898438 781.885254,474.693512 785.093750,478.322754 
	C787.405579,480.937927 789.795654,483.483887 791.690552,485.557098 
	C790.144348,487.259094 789.060120,488.452545 787.975830,489.645935 
	C789.926514,489.971802 792.149475,491.062225 793.777466,490.482239 
	C798.954712,488.637787 796.870728,485.030945 794.994263,481.827637 
	C800.542175,479.826630 800.542175,479.826630 799.600098,476.489838 
	C795.975403,475.671631 791.873108,475.964417 790.290527,474.108551 
	C787.790710,471.177002 788.063843,466.938019 792.034363,463.354248 
M66.818756,471.670044 
	C68.346191,472.662689 69.873627,473.655304 71.401070,474.647919 
	C71.235062,475.289520 71.069061,475.931122 70.903061,476.572723 
	C67.518242,476.327271 64.133423,476.081818 60.739010,475.835663 
	C59.996208,480.720490 61.594849,481.890930 68.837601,481.402527 
	C72.846786,481.132111 76.588959,480.306702 77.376030,475.452576 
	C78.112228,470.912262 75.187119,468.904236 71.617126,467.285980 
	C69.874069,466.495819 68.285362,465.365173 66.626793,464.388641 
	C66.834724,463.857452 67.042648,463.326263 67.250580,462.795105 
	C69.919472,463.076691 72.588364,463.358276 75.587433,463.674713 
	C76.029846,462.500671 76.521515,461.195923 77.005692,459.911102 
	C69.662804,456.726807 62.962234,457.588531 60.901951,461.768799 
	C59.110004,465.404633 60.883492,468.623383 66.818756,471.670044 
M664.961853,477.240417 
	C664.961853,472.632019 664.961853,468.023621 664.961853,463.316162 
	C666.945312,463.101501 668.377563,462.946472 669.664062,462.807251 
	C671.980347,457.439789 667.031372,458.778290 665.177551,457.629303 
	C664.196777,452.133362 674.002258,456.955536 671.662109,450.400360 
	C665.784912,448.444336 661.283630,449.152283 659.619690,452.564423 
	C658.126648,455.626282 656.978699,458.856445 655.539795,462.349091 
	C660.252258,463.130371 658.569336,467.110046 658.675293,470.282135 
	C658.790588,473.733124 658.701477,477.190979 658.701477,481.139252 
	C661.287231,480.214661 664.842834,483.212280 664.961853,477.240417 
M311.690796,470.903931 
	C313.830200,472.104462 315.969604,473.305023 318.109009,474.505585 
	C317.887451,475.215942 317.665894,475.926270 317.444305,476.636597 
	C314.053223,476.362122 310.662140,476.087677 307.281952,475.814087 
	C306.795380,480.817169 308.068451,481.772186 315.079773,481.393677 
	C319.082397,481.177643 322.928986,480.454468 323.860870,475.681396 
	C324.794617,470.898773 321.590210,468.854462 317.854492,467.175171 
	C316.126221,466.398193 314.572968,465.231934 312.940338,464.242188 
	C313.161163,463.724976 313.382019,463.207764 313.602844,462.690552 
	C316.318787,463.018188 319.034729,463.345825 322.119385,463.717926 
	C322.527863,462.532501 322.985718,461.203674 323.702484,459.123596 
	C320.250580,458.707977 317.171173,457.597687 314.497192,458.222504 
	C311.803833,458.851837 308.509857,460.666840 307.292236,462.935516 
	C305.649414,465.996399 307.724030,468.974304 311.690796,470.903931 
M432.548431,454.087311 
	C430.870209,456.620789 429.191986,459.154236 428.215210,460.628815 
	C429.019470,463.810486 429.805054,466.128601 430.156830,468.510773 
	C430.589813,471.443085 430.161652,474.579315 430.999268,477.358093 
	C432.463745,482.216553 436.744904,481.845154 440.500885,480.978668 
	C441.784546,480.682526 442.633270,478.500854 444.195374,476.531921 
	C436.259033,475.982788 435.194763,473.337311 437.464874,463.330811 
	C439.185852,463.124969 440.941956,462.914948 442.574249,462.719696 
	C444.497711,456.608704 439.198456,458.991272 437.076202,457.711792 
	C437.327026,457.258026 437.577820,456.804260 437.828644,456.350494 
	C436.278809,455.479401 434.728943,454.608307 432.548431,454.087311 
M935.737061,453.555084 
	C933.427246,456.083344 931.086609,458.585175 928.860718,461.185333 
	C928.662781,461.416534 929.186340,462.296997 929.417542,462.858307 
	C930.130127,464.588348 931.231384,466.253571 931.505676,468.047302 
	C931.953613,470.977264 931.417786,474.097900 932.106995,476.941833 
	C933.307190,481.894531 937.432556,481.536469 941.366516,481.203064 
	C944.854431,480.907410 944.721924,478.846313 944.025208,476.369446 
	C937.373657,476.080566 936.477234,473.896484 938.564697,463.283783 
	C940.280945,463.111603 942.039795,462.935150 943.691040,462.769470 
	C945.649719,456.702545 940.466309,458.938843 938.922363,458.136627 
	C937.903076,456.241364 937.194031,454.923035 935.737061,453.555084 
M882.665527,477.431732 
	C881.766541,476.840942 880.941162,475.988983 879.954041,475.710510 
	C877.457397,475.006165 873.302429,475.251923 872.693970,473.858551 
	C871.593262,471.337708 871.747070,467.445709 873.049377,465.026337 
	C873.762085,463.702118 877.897522,464.225189 880.487610,463.900208 
	C880.803955,463.860504 881.108521,463.727325 881.705017,463.554504 
	C882.111084,462.358032 882.568604,461.010071 883.104065,459.432465 
	C877.673889,457.377777 872.715576,456.904602 868.290161,460.772827 
	C864.893250,463.742065 863.983704,470.777252 866.041382,475.754333 
	C867.545471,479.392517 870.390503,481.262543 874.191040,481.262756 
	C877.276001,481.262909 881.067261,482.595978 882.665527,477.431732 
M87.555222,458.642548 
	C81.530457,461.792114 79.263397,467.704163 81.406097,474.677979 
	C82.984581,479.815338 87.329094,482.057007 93.781815,481.291321 
	C97.781776,480.816681 99.390633,479.147614 97.645332,475.245178 
	C93.912262,475.693298 89.366226,478.478882 87.831627,472.934631 
	C85.648628,465.047729 88.691673,461.340851 97.322937,463.980682 
	C97.858986,462.332184 98.297676,460.983093 99.152428,458.354523 
	C95.076248,458.354523 91.699203,458.354523 87.555222,458.642548 
M374.670166,476.172455 
	C369.475922,475.202789 369.910034,471.202667 370.454620,467.619568 
	C371.420013,461.267517 376.225433,463.334473 380.313660,463.927338 
	C380.840607,462.365936 381.296997,461.013611 381.744995,459.686096 
	C375.594299,456.998444 369.970367,457.572754 366.690063,461.076416 
	C363.596619,464.380463 362.812256,472.255035 365.221710,476.639435 
	C367.825104,481.376831 372.242126,481.620667 376.910126,481.256012 
	C380.858307,480.947601 382.157135,479.002319 380.840851,475.257019 
	C379.028625,475.570709 377.259644,475.876923 374.670166,476.172455 
M250.599472,463.042999 
	C252.351715,463.335449 254.103958,463.627899 256.123901,463.965027 
	C256.600830,462.383209 257.013184,461.015472 257.413971,459.686218 
	C251.268921,456.990997 245.622864,457.599609 242.376236,461.140930 
	C239.340179,464.452515 238.612686,472.398743 241.032104,476.724518 
	C243.674667,481.449249 248.109772,481.613861 252.764862,481.238403 
	C256.784241,480.914246 257.858154,478.852936 256.570709,475.171722 
	C252.983994,475.574371 248.620499,478.462463 246.663284,473.260437 
	C245.262390,469.536987 244.849655,465.279297 250.599472,463.042999 
M495.102417,481.314301 
	C499.152527,481.035706 501.327759,479.507263 499.425873,475.132172 
	C495.643494,475.839142 491.036438,478.373016 489.555328,472.964569 
	C487.457489,465.304321 490.232391,461.165131 499.115204,464.046875 
	C499.611511,462.358582 500.013184,460.992188 500.475189,459.420593 
	C495.064850,457.382416 489.961792,456.784119 485.766846,460.872620 
	C481.596497,464.937134 481.948578,470.310303 483.491028,475.373993 
	C485.075195,480.574371 489.499451,481.532745 495.102417,481.314301 
M135.477615,463.514984 
	C135.477615,458.935638 135.477615,454.356293 135.477615,449.429749 
	C132.926880,449.542633 131.187164,449.619598 129.472717,449.695465 
	C129.472717,460.391205 129.472717,470.581116 129.472717,480.704132 
	C131.598068,480.704132 133.344147,480.704132 135.477325,480.704132 
	C135.477325,475.099609 135.477325,469.803528 135.477615,463.514984 
M292.965912,458.285339 
	C291.747711,459.161133 289.517029,459.989899 289.473816,460.920288 
	C289.168182,467.501038 289.311340,474.102661 289.311340,480.810242 
	C291.720551,480.810242 293.492279,480.810242 295.025787,480.810242 
	C298.298676,474.956055 290.466248,464.131592 303.708740,463.522369 
	C303.708740,461.582123 303.708740,459.866913 303.708740,457.161957 
	C300.450806,458.516998 297.833405,459.605621 295.159637,460.717682 
	C294.799286,460.178650 294.249573,459.356293 292.965912,458.285339 
M712.418274,463.872833 
	C713.104675,462.135132 713.791077,460.397430 714.477478,458.659729 
	C714.071472,458.274689 713.665466,457.889679 713.259521,457.504669 
	C710.651428,458.514801 708.043335,459.524933 705.732544,460.419922 
	C704.250000,459.736603 702.712036,458.838837 701.052917,458.414581 
	C700.700317,458.324432 699.412720,459.949371 699.394348,460.802216 
	C699.252075,467.399475 699.315918,474.001129 699.315918,480.660095 
	C701.740051,480.660095 703.608215,480.660095 705.848511,480.660095 
	C705.848511,476.992126 705.913208,473.695648 705.831970,470.402710 
	C705.733215,466.399353 707.420166,464.090027 712.418274,463.872833 
M922.311279,458.381958 
	C920.963501,459.249512 919.615723,460.117065 919.215149,460.374908 
	C916.585144,459.422913 914.676086,458.731873 912.446838,457.924927 
	C912.446838,466.363678 912.446838,473.567230 912.446838,480.739075 
	C914.562073,480.739075 916.314941,480.739075 917.829407,480.739075 
	C920.597229,474.577057 913.490051,464.079956 926.396484,463.472168 
	C926.933350,460.396057 928.192261,457.189331 922.311279,458.381958 
M410.970886,468.533356 
	C410.970886,472.623993 410.970886,476.714630 410.970886,481.065125 
	C413.409912,480.947174 415.146454,480.863190 416.495331,480.797943 
	C419.074799,474.443848 412.419678,464.364075 425.188904,463.499146 
	C425.326080,461.713318 425.457520,460.002228 425.681580,457.085419 
	C422.046875,458.541229 419.413605,459.595947 417.289215,460.446838 
	C415.426575,459.540253 413.668976,458.684814 410.970886,457.371613 
	C410.970886,461.650269 410.970886,464.604095 410.970886,468.533356 
M617.993591,460.930176 
	C617.993591,467.528442 617.993591,474.126709 617.993591,480.660217 
	C620.342102,480.660217 622.070801,480.660217 623.759644,480.660217 
	C623.759644,473.094940 623.759644,465.870483 623.759644,457.461090 
	C621.375610,458.527893 619.700378,459.277496 617.993591,460.930176 
M809.815918,455.210602 
	C811.736389,455.293182 813.751587,455.030579 815.558533,455.526611 
	C820.005066,456.747314 822.541260,454.763000 822.368469,450.854279 
	C819.055664,450.516144 815.927185,450.235931 812.809143,449.867554 
	C809.689270,449.498962 807.570923,450.727173 806.925598,453.796967 
	C806.830872,454.247528 808.441589,455.056610 809.815918,455.210602 
M618.079834,454.025513 
	C619.826843,454.314392 621.580139,454.782166 623.315002,454.722015 
	C623.616150,454.711609 624.370667,452.218079 623.949463,451.329437 
	C623.532410,450.449585 621.457031,449.406891 620.879822,449.746307 
	C619.618835,450.487946 618.846863,452.060944 618.079834,454.025513 
z"/>
<path fill="#FEFFFF" opacity="1.000000" stroke="none" 
	d="
M680.996826,213.000000 
	C680.996643,201.669006 680.984985,190.837982 681.000549,180.007004 
	C681.012695,171.566406 682.901428,169.565948 691.730896,169.521072 
	C712.392578,169.416016 733.061584,169.164520 753.715210,169.584763 
	C769.493774,169.905792 785.514709,169.666519 800.959656,172.360565 
	C823.897888,176.361664 841.563721,188.650589 847.300049,212.815445 
	C851.645691,231.121323 848.943604,248.301147 834.935791,262.276001 
	C832.735046,264.471497 830.028931,266.160431 828.232422,267.557800 
	C834.007812,273.072052 840.869263,277.843842 845.407532,284.259094 
	C867.051453,314.855408 851.728638,357.777679 815.050476,368.690430 
	C804.043518,371.965302 792.193420,373.497742 780.680969,373.769104 
	C751.203735,374.463959 721.699219,374.013611 692.205566,373.994385 
	C682.718201,373.988190 680.999084,372.193451 680.998291,362.467438 
	C680.994202,312.811615 680.996887,263.155823 680.996826,213.000000 
M729.762512,302.499908 
	C729.762512,311.575073 729.762512,320.650208 729.762512,330.000061 
	C736.025635,330.000061 741.502625,330.070923 746.977173,329.986206 
	C760.952271,329.769958 774.962402,330.010681 788.889038,329.055756 
	C799.546143,328.325043 805.336731,321.254608 805.725159,310.832001 
	C806.113892,300.399872 801.222534,293.938110 790.438721,291.983368 
	C784.601196,290.925201 778.529541,291.184326 772.568787,290.773621 
	C766.043396,290.324005 763.991211,288.227875 763.927307,281.754852 
	C763.846680,273.595032 763.895996,265.433655 763.922791,257.273071 
	C763.938354,252.534348 766.204895,249.703537 771.061279,249.415283 
	C775.379272,249.158981 779.727844,249.306976 784.029785,248.913696 
	C795.708862,247.845978 802.553955,241.248978 802.601685,231.283234 
	C802.654419,220.276520 797.422852,214.687775 784.639038,213.908676 
	C771.696350,213.119888 758.690491,213.349091 745.711731,213.178162 
	C740.594116,213.110764 735.474976,213.167114 729.762390,213.167114 
	C729.762390,242.980652 729.762390,272.240265 729.762512,302.499908 
z"/>
<path fill="#FDFFFF" opacity="1.000000" stroke="none" 
	d="
M141.032684,266.130524 
	C141.014725,280.452423 140.616089,294.786987 141.093643,309.092346 
	C141.510666,321.584320 150.221298,331.241364 162.568726,334.036530 
	C172.189941,336.214569 181.766663,336.145966 190.940689,332.074036 
	C200.611038,327.781799 205.731598,320.014557 207.003159,309.670807 
	C207.387650,306.543121 207.337952,303.351379 207.339600,300.188934 
	C207.360016,261.204468 207.350876,222.219971 207.359375,183.235489 
	C207.359818,181.238037 207.387344,179.236633 207.512589,177.243988 
	C207.813995,172.449127 210.459000,169.910065 215.214706,169.875305 
	C226.209625,169.794983 237.207230,169.734711 248.200272,169.899048 
	C253.443771,169.977432 255.769669,172.374176 255.957306,177.680649 
	C256.175018,183.837570 256.063660,190.006775 256.064606,196.170639 
	C256.070221,233.155914 255.398697,270.156708 256.258331,307.122009 
	C257.087128,342.762238 236.775589,364.792572 206.060120,373.994965 
	C182.392014,381.085938 158.762115,380.397797 135.446930,371.944305 
	C107.281143,361.732086 92.080406,340.212769 92.003624,310.357513 
	C91.966347,295.863342 91.979492,281.369049 91.956131,265.945312 
	C91.905807,256.659943 91.869164,248.304047 91.894714,239.485779 
	C91.972832,219.065826 91.957642,199.108139 92.022942,179.150726 
	C92.043556,172.852356 94.058289,170.077698 99.371246,169.962433 
	C110.674652,169.717224 121.987595,169.806061 133.295166,169.913147 
	C137.576324,169.953690 140.060867,172.374084 140.490250,176.669281 
	C140.704651,178.813812 140.771011,180.979904 140.782272,183.136902 
	C140.881226,202.090988 140.952667,221.045212 140.965057,240.464172 
	C140.942795,249.329453 140.987732,257.729980 141.032684,266.130524 
z"/>
<path fill="#FDFFFF" opacity="1.000000" stroke="none" 
	d="
M604.376831,176.598145 
	C630.780029,187.627502 643.768860,207.761215 645.923828,235.351059 
	C647.098816,250.394165 645.068848,264.988556 637.510620,278.324677 
	C626.811401,297.203125 609.724915,307.101715 589.019775,310.832245 
	C578.925354,312.651031 568.520325,312.908051 558.233643,313.444214 
	C550.767517,313.833405 543.264893,313.520233 534.955933,313.520233 
	C534.955933,315.560822 534.955933,317.301971 534.955872,319.043121 
	C534.955566,333.701385 534.977905,348.359741 534.946472,363.017914 
	C534.927490,371.878174 532.818726,373.986725 524.111938,373.999603 
	C515.283691,374.012665 506.455414,374.005615 497.627136,374.001678 
	C488.130402,373.997467 486.142578,372.079071 486.138184,362.667206 
	C486.119781,323.189819 486.130432,283.712463 486.130890,244.235077 
	C486.131104,222.913971 486.114288,201.592819 486.141815,180.271759 
	C486.152466,172.008621 488.194855,169.862274 496.431519,169.856262 
	C521.749878,169.837738 547.091431,169.307465 572.375732,170.258820 
	C582.988525,170.658157 593.480103,174.278519 604.376831,176.598145 
M593.720337,224.884384 
	C587.879333,218.047256 580.299133,214.356049 571.483704,214.055786 
	C559.436401,213.645432 547.364685,213.953323 534.954407,213.953323 
	C534.954407,223.810867 534.954407,233.280151 534.954407,242.749451 
	C534.954407,252.191727 534.954407,261.634003 534.954407,270.916595 
	C548.223511,270.916595 560.981995,272.095917 573.439514,270.661652 
	C596.624023,267.992340 606.576782,245.318726 593.720337,224.884384 
z"/>
<path fill="#FEFFFF" opacity="1.000000" stroke="none" 
	d="
M380.999939,213.168213 
	C370.011261,213.168213 359.522583,213.168213 348.584595,213.168213 
	C348.584595,225.126144 348.584595,236.833588 348.584595,249.133774 
	C350.374359,249.245285 352.285278,249.466034 354.196411,249.467957 
	C377.856689,249.491821 401.517059,249.467941 425.177338,249.491074 
	C436.329559,249.501968 437.914673,251.105927 437.926056,262.142334 
	C437.932770,268.640594 437.966461,275.139191 437.914948,281.637024 
	C437.850708,289.741547 435.645325,291.968842 427.425385,291.983734 
	C403.098663,292.027802 378.771820,292.000214 354.445007,292.000641 
	C352.618805,292.000671 350.792603,292.000641 348.133453,292.000641 
	C348.133453,293.961792 348.133636,295.703888 348.133392,297.446014 
	C348.130432,319.773346 348.154358,342.100739 348.110291,364.427979 
	C348.093994,372.688507 346.733032,373.986633 338.548065,373.997742 
	C329.383850,374.010162 320.219635,374.015869 311.055450,373.996429 
	C301.154999,373.975464 299.532959,372.364838 299.520630,362.267548 
	C299.489929,337.107666 299.510590,311.947723 299.510284,286.787811 
	C299.509857,251.797211 299.500092,216.806595 299.513947,181.815994 
	C299.518127,171.238251 300.868866,169.844452 311.211639,169.840195 
	C353.866852,169.822693 396.522064,169.822998 439.177277,169.838943 
	C449.319733,169.842728 450.920227,171.511368 450.938202,181.852295 
	C450.949768,188.517166 450.954376,195.182098 450.936432,201.846924 
	C450.910889,211.327026 449.105988,213.143494 439.484222,213.158661 
	C420.156158,213.189133 400.828064,213.168030 380.999939,213.168213 
z"/>
<path fill="#FDDE5A" opacity="1.000000" stroke="none" 
	d="
M141.403351,266.071838 
	C140.987732,257.729980 140.942795,249.329453 141.299866,240.381989 
	C164.022491,226.859604 174.443680,205.053467 169.807755,181.024033 
	C165.060287,156.416534 143.184631,137.999634 117.784042,137.225815 
	C92.767319,136.463699 70.263275,153.717529 63.850750,178.576447 
	C57.591789,202.840057 69.230949,228.367920 91.832535,239.948151 
	C91.869164,248.304047 91.905807,256.659943 91.887619,265.477203 
	C84.638374,262.595367 77.443954,259.252136 69.706627,255.656647 
	C55.399807,269.993805 40.586510,284.848022 25.755997,299.685028 
	C24.346062,301.095581 22.947735,302.564606 21.338530,303.720398 
	C16.421579,307.251923 10.184226,306.647400 5.836144,302.373444 
	C1.814182,298.420044 1.226186,292.142792 4.588893,287.296997 
	C5.717101,285.671204 7.167800,284.249542 8.578745,282.842529 
	C23.430349,268.032471 38.303764,253.244247 53.391197,238.231003 
	C46.453983,228.300018 41.905479,217.760376 39.512672,206.202240 
	C30.342833,161.908508 63.353096,117.611916 108.473831,113.881508 
	C150.577530,110.400536 185.412643,136.443619 193.470596,177.425964 
	C200.913803,215.281830 179.504791,251.968277 141.403351,266.071838 
z"/>
<path fill="#FBDD5B" opacity="1.000000" stroke="none" 
	d="
M914.721069,317.026550 
	C929.563110,322.298523 935.430847,333.778473 932.778198,352.146515 
	C920.064209,352.146515 907.283752,352.146515 894.591003,352.146515 
	C893.088928,359.482483 897.678040,366.571930 905.043457,366.864227 
	C911.554565,367.122650 918.148376,365.623505 924.682922,364.733673 
	C926.260742,364.518829 927.748901,363.646118 929.915405,362.838440 
	C929.915405,366.738800 930.164795,370.189209 929.784302,373.568695 
	C929.645508,374.801086 928.230835,376.458282 927.019653,376.912750 
	C916.063293,381.023865 904.906860,381.482361 893.804749,377.611786 
	C891.047241,376.650421 888.414490,374.923981 886.144226,373.042603 
	C875.965271,364.607452 873.086487,344.915833 879.799622,330.928497 
	C885.377441,319.306854 897.923950,313.753204 912.364868,316.518127 
	C913.018616,316.643341 913.665039,316.806915 914.721069,317.026550 
M912.347717,329.919983 
	C902.331848,325.286133 894.607971,329.866272 894.279846,340.755676 
	C901.849548,340.755676 909.413635,340.755676 918.664124,340.755676 
	C916.445740,336.695404 914.714050,333.525940 912.347717,329.919983 
z"/>
<path fill="#FBDD5B" opacity="1.000000" stroke="none" 
	d="
M955.750183,341.353882 
	C950.469116,333.316772 945.386353,325.589661 939.774841,317.058685 
	C946.205811,317.058685 951.639099,316.885895 957.046082,317.186218 
	C958.318420,317.256897 959.872375,318.682800 960.662598,319.897736 
	C964.085205,325.159851 967.272705,330.574860 970.998291,336.675385 
	C974.634216,330.782379 977.717834,325.344177 981.294373,320.252136 
	C982.387207,318.696259 984.768860,317.365967 986.674133,317.194061 
	C991.458496,316.762390 996.307861,317.051392 1002.286926,317.051392 
	C995.345154,327.537323 988.820190,337.393677 982.188599,347.411072 
	C989.052307,357.726990 995.840820,367.929840 1003.198853,378.988678 
	C996.676453,378.988678 990.956543,379.137207 985.257507,378.857544 
	C984.178345,378.804596 982.928772,377.213776 982.191223,376.056366 
	C978.548157,370.338501 975.050842,364.527740 970.993347,357.921448 
	C967.073486,364.275726 963.419067,369.925507 960.073303,375.752533 
	C958.646423,378.237518 956.994080,379.217407 954.121399,379.073181 
	C949.340637,378.833191 944.538940,379.007751 938.758057,379.007751 
	C944.765869,369.951233 950.071655,361.385010 955.989380,353.264771 
	C959.087219,349.013794 959.726318,345.526337 955.750183,341.353882 
z"/>
<path fill="#EFFBFD" opacity="1.000000" stroke="none" 
	d="
M724.493896,474.841858 
	C724.493591,477.094208 724.493591,478.884979 724.493591,480.782227 
	C722.135254,480.782227 720.367859,480.782227 718.344604,480.782227 
	C718.344604,473.424927 718.344604,466.306885 718.338379,459.185730 
	C718.572632,458.960175 718.923950,458.497345 719.037659,458.549774 
	C724.869934,461.238129 731.648743,454.884460 737.263184,460.406281 
	C737.544189,460.682678 739.152588,459.709259 740.084167,459.208405 
	C746.350403,455.839630 752.116211,458.750275 752.552063,465.779358 
	C752.858459,470.720306 752.611328,475.695557 752.611328,480.811401 
	C750.304443,480.811401 748.525574,480.811401 746.146057,480.811401 
	C746.146057,476.316925 746.446289,471.994843 745.995483,467.752563 
	C745.819763,466.098755 743.952881,464.624634 742.856323,463.068665 
	C741.512878,464.485779 739.208923,465.780975 739.010681,467.343384 
	C738.472168,471.586761 738.825806,475.943359 738.825806,480.638184 
	C736.386169,480.638184 734.525208,480.638184 732.097107,480.638184 
	C732.097107,476.274658 732.400574,471.948669 731.944153,467.704376 
	C731.767700,466.063385 729.868713,464.607635 728.754456,463.067505 
	C727.435669,464.510559 725.527283,465.751984 724.947449,467.447693 
	C724.224121,469.562897 724.595520,472.052399 724.493896,474.841858 
z"/>
<path fill="#F6FDFE" opacity="1.000000" stroke="none" 
	d="
M544.652710,458.037598 
	C546.845398,458.839600 548.633850,459.618683 550.872986,460.594086 
	C551.609497,460.144379 552.770813,459.227081 554.084778,458.669159 
	C559.700439,456.284546 564.820251,459.196075 565.128418,465.149017 
	C565.393677,470.274750 565.183411,475.425110 565.183411,480.786682 
	C563.130066,480.786682 561.361328,480.786682 559.017395,480.786682 
	C559.017395,476.574860 559.346191,472.423004 558.870605,468.365448 
	C558.651917,466.499573 556.856445,464.818481 555.776001,463.053589 
	C554.294495,464.727783 551.836975,466.242859 551.532654,468.108978 
	C550.877991,472.124207 551.331665,476.320129 551.331665,480.722900 
	C549.034973,480.722900 547.299561,480.722900 544.980957,480.722900 
	C544.980957,476.559448 545.312561,472.410645 544.833069,468.357819 
	C544.612305,466.492004 542.803101,464.814117 541.714111,463.051025 
	C540.242065,464.736542 537.802063,466.264862 537.497620,468.139954 
	C536.845764,472.154419 537.297913,476.348206 537.297913,480.735504 
	C534.971375,480.735504 533.241455,480.735504 531.239990,480.735504 
	C531.239990,473.370850 531.239990,466.131134 531.239990,457.943146 
	C535.785034,460.338867 539.982788,458.677002 544.652710,458.037598 
z"/>
<path fill="#F3FCFD" opacity="1.000000" stroke="none" 
	d="
M147.975647,474.968994 
	C147.975616,477.076294 147.975616,478.718201 147.975616,480.760406 
	C145.914337,480.859711 144.176346,480.943451 142.067322,481.045044 
	C142.067322,470.530640 142.067322,460.319275 142.067322,449.768860 
	C143.868103,449.768860 145.597382,449.768860 147.815277,449.768860 
	C147.815277,453.108734 147.815277,456.350769 147.815277,460.004456 
	C149.569809,459.267822 150.730179,458.628265 151.972427,458.285187 
	C157.626984,456.723511 162.148346,459.622772 162.571075,465.479187 
	C162.927841,470.421967 162.644531,475.410950 162.644531,480.696228 
	C160.562531,480.696228 158.813187,480.696228 156.225159,480.696228 
	C156.225159,476.685608 156.263489,472.609467 156.211075,468.534515 
	C156.178558,466.006927 156.259598,463.140167 152.671494,463.094482 
	C149.209564,463.050415 148.313583,465.669373 148.073883,468.510284 
	C147.906281,470.496674 147.999146,472.505066 147.975647,474.968994 
z"/>
<path fill="#F6FDFE" opacity="1.000000" stroke="none" 
	d="
M49.836853,451.294983 
	C51.950771,451.295074 53.597855,451.295074 55.718845,451.295074 
	C55.808197,453.155273 55.881599,454.683441 55.982677,456.787720 
	C52.276150,456.787720 49.023109,456.787720 45.487034,456.787720 
	C45.374470,458.930939 45.289856,460.542023 45.171787,462.790039 
	C48.456993,462.790039 51.514851,462.790039 54.871132,462.790039 
	C54.871132,464.799744 54.871132,466.190979 54.871132,467.975983 
	C51.878189,468.114014 48.949398,468.249115 45.626038,468.402405 
	C45.626038,470.764313 45.626038,472.969086 45.626038,475.706726 
	C48.923187,475.706726 52.169971,475.706726 55.737652,475.706726 
	C55.826900,477.619843 55.892406,479.024017 55.971989,480.729919 
	C50.272774,480.729919 44.872726,480.729919 39.229931,480.729919 
	C39.229931,470.974487 39.229931,461.413300 39.229931,451.294891 
	C42.788296,451.294891 46.079155,451.294891 49.836853,451.294983 
z"/>
<path fill="#F3FCFD" opacity="1.000000" stroke="none" 
	d="
M642.363342,458.039673 
	C649.256165,458.365753 651.440735,460.408020 651.695862,466.738892 
	C651.856262,470.720337 651.738342,474.713806 651.702637,478.701508 
	C651.696960,479.334869 651.465515,479.966187 651.299133,480.794067 
	C649.408752,480.794067 647.634705,480.794067 645.223755,480.794067 
	C645.223755,476.564575 645.548523,472.417786 645.078735,468.363098 
	C644.862915,466.501129 643.382202,463.650177 641.960632,463.292511 
	C638.681213,462.467407 637.278625,465.245911 637.125000,468.131317 
	C636.906128,472.242767 637.069336,476.374573 637.069336,480.752747 
	C634.792786,480.752747 633.042725,480.752747 631.001282,480.752747 
	C631.001282,473.449554 631.001282,466.214478 631.001282,457.878174 
	C633.225037,458.623444 635.057434,459.237579 637.391846,460.019958 
	C638.347107,459.611755 640.155212,458.839142 642.363342,458.039673 
z"/>
<path fill="#F3FCFD" opacity="1.000000" stroke="none" 
	d="
M398.384277,458.158447 
	C404.933502,460.891205 406.387909,463.564423 405.535767,471.262726 
	C401.204102,471.262726 396.797852,471.262726 392.380219,471.262726 
	C392.744293,477.039551 393.856445,477.409607 404.257507,475.646484 
	C405.654388,478.930176 404.364716,480.419128 401.046387,481.073578 
	C390.892914,483.075989 384.375153,477.968811 385.087433,468.431030 
	C385.631348,461.148621 389.693634,457.891022 398.384277,458.158447 
M399.587646,466.759369 
	C400.095673,463.583740 398.066406,462.333527 395.577820,462.686920 
	C394.112762,462.894958 392.879242,464.733734 391.541565,465.839081 
	C391.829742,466.226379 392.117920,466.613678 392.406097,467.000977 
	C394.538940,467.000977 396.671753,467.000977 399.587646,466.759369 
z"/>
<path fill="#EFFBFD" opacity="1.000000" stroke="none" 
	d="
M957.948364,480.985077 
	C954.675171,480.381287 951.012390,480.549469 949.036987,478.805878 
	C945.495300,475.679932 947.425110,469.498871 952.052795,468.019958 
	C954.842529,467.128418 957.872742,466.989105 961.011169,466.476471 
	C961.075562,461.452698 957.423523,462.465179 954.890991,463.207794 
	C951.905212,464.083344 950.521851,463.442108 949.943481,460.017090 
	C954.228821,457.480133 958.846985,457.073639 963.500244,458.962585 
	C968.136902,460.844849 967.785706,465.184021 967.802551,469.194244 
	C967.818481,472.990753 967.805969,476.787354 967.805969,480.240692 
	C964.405945,482.669769 961.190735,476.889862 957.948364,480.985077 
M953.999878,474.339447 
	C955.491760,475.059601 957.517517,476.749420 958.358215,476.286652 
	C959.847961,475.466492 960.617920,473.338715 961.689087,471.758087 
	C961.128845,471.192810 960.568542,470.627502 960.008301,470.062195 
	C958.017883,471.223328 956.027466,472.384491 953.999878,474.339447 
z"/>
<path fill="#EFFBFD" opacity="1.000000" stroke="none" 
	d="
M764.664246,463.121399 
	C762.718933,462.712311 761.171631,462.217621 759.624329,461.722931 
	C759.754395,461.126373 759.884399,460.529785 760.014465,459.933228 
	C764.316284,457.494171 768.942139,457.054291 773.583008,458.999298 
	C778.183838,460.927582 777.782043,465.280273 777.802002,469.279205 
	C777.820862,473.064880 777.806030,476.850708 777.806030,481.604645 
	C775.211304,480.729431 773.373230,480.109436 771.081970,479.336578 
	C768.039368,481.502411 763.861694,482.940674 760.238586,479.967377 
	C758.515259,478.553101 757.353088,474.816406 757.884949,472.598999 
	C759.499695,465.866058 765.853760,467.618011 770.614563,466.701355 
	C770.528015,462.637756 770.528015,462.637756 764.664246,463.121399 
M764.482361,475.821472 
	C769.366333,477.501617 770.871033,476.452362 770.901428,471.056946 
	C767.760803,471.025299 764.072693,469.718567 764.482361,475.821472 
z"/>
<path fill="#EFFBFD" opacity="1.000000" stroke="none" 
	d="
M171.596558,463.572510 
	C169.359604,460.822968 169.908569,459.450989 173.071426,458.520416 
	C182.396057,455.776886 187.764709,459.502808 187.803268,469.009216 
	C187.818680,472.810547 187.805801,476.612030 187.805801,480.188538 
	C187.158920,480.583832 186.816498,480.951263 186.628815,480.884369 
	C182.862671,479.542603 179.333771,480.291992 175.522278,481.223846 
	C171.596329,482.183716 168.296768,480.311401 167.587418,475.753174 
	C166.916245,471.440277 168.774002,468.622375 173.031128,467.681580 
	C175.590866,467.115875 178.237656,466.944122 181.605164,466.493713 
	C179.448288,460.423889 175.215240,463.651428 171.596558,463.572510 
M176.161362,471.201294 
	C175.558228,472.656097 174.955093,474.110901 174.351944,475.565704 
	C175.670242,475.902405 177.486557,476.939545 178.203156,476.429993 
	C179.696289,475.368347 180.607742,473.488617 182.463577,470.998627 
	C179.513718,470.998627 178.249008,470.998627 176.161362,471.201294 
z"/>
<path fill="#F6FDFE" opacity="1.000000" stroke="none" 
	d="
M262.033295,471.700378 
	C262.064575,467.412598 262.088776,463.583405 262.144958,459.754730 
	C262.149353,459.455170 262.377136,459.158905 262.626465,458.559937 
	C264.251984,458.559937 265.992889,458.559937 268.293884,458.559937 
	C268.293884,462.849030 267.946747,467.021881 268.451569,471.088989 
	C268.677887,472.912354 270.301331,475.553650 271.834167,476.013855 
	C274.874176,476.926514 276.334137,474.309479 276.480072,471.594299 
	C276.709198,467.330322 276.540894,463.045013 276.540894,458.521545 
	C279.008026,458.521545 280.611450,458.521545 282.612610,458.521545 
	C282.612610,465.911774 282.612610,473.298523 282.612610,480.052002 
	C278.285095,480.507904 274.131165,481.170685 269.958130,481.328491 
	C264.659943,481.528900 262.454468,478.792847 262.033295,471.700378 
z"/>
<path fill="#F6FDFE" opacity="1.000000" stroke="none" 
	d="
M349.393768,471.534058 
	C347.626526,479.308746 343.064850,482.473633 336.030182,481.154205 
	C329.718964,479.970459 326.455994,473.995636 327.937439,466.335541 
	C329.092834,460.361572 334.186920,457.068390 340.687927,458.092682 
	C346.548889,459.016144 349.416962,463.288361 349.393768,471.534058 
M343.018127,467.887939 
	C342.651031,464.894684 341.171814,462.298584 338.028809,463.294739 
	C336.300507,463.842499 334.222443,466.738464 334.250946,468.544983 
	C334.290802,471.071075 336.150177,473.568451 337.231079,476.078094 
	C339.056335,475.106323 341.201233,474.448792 342.583862,473.041992 
	C343.381409,472.230530 342.947571,470.208801 343.018127,467.887939 
z"/>
<path fill="#F3FCFD" opacity="1.000000" stroke="none" 
	d="
M849.362671,476.124084 
	C845.207642,481.387482 839.316528,482.847595 834.286743,480.147766 
	C829.669312,477.669250 827.560425,471.306091 829.360229,465.282745 
	C830.900330,460.128510 835.488220,457.372375 841.420166,458.037811 
	C846.764404,458.637299 850.520203,462.623962 850.741760,468.530304 
	C850.831787,470.931976 849.977051,473.369080 849.362671,476.124084 
M839.597900,463.034363 
	C835.190735,464.933563 833.246643,471.621368 836.679321,474.662170 
	C837.894836,475.738831 841.638062,475.699921 842.918457,474.619385 
	C846.002686,472.016602 844.232788,465.217926 839.597900,463.034363 
z"/>
<path fill="#F3FCFD" opacity="1.000000" stroke="none" 
	d="
M522.575806,478.574951 
	C517.174866,482.079834 511.788177,482.266235 507.969818,479.336212 
	C504.297882,476.518555 502.713867,470.487061 504.401611,465.227478 
	C505.884857,460.605164 509.165253,458.244965 514.006958,457.999695 
	C518.975037,457.748016 522.874756,459.547791 524.767578,464.280975 
	C526.739746,469.212555 526.280457,474.017975 522.575806,478.574951 
M510.153778,469.584717 
	C510.452637,472.754242 510.466705,476.227997 514.993164,476.184784 
	C518.592590,476.150391 519.167664,473.447357 519.214417,470.655609 
	C519.266541,467.546112 519.722229,463.848572 515.461914,463.155151 
	C511.428619,462.498627 510.573669,465.596375 510.153778,469.584717 
z"/>
<path fill="#F5FCFE" opacity="1.000000" stroke="none" 
	d="
M454.801514,481.157776 
	C447.502289,478.477051 444.805267,472.907654 446.887512,465.528015 
	C448.485474,459.864594 453.584412,456.942596 459.788727,458.134918 
	C465.775116,459.285370 468.957550,464.622620 468.068359,472.020447 
	C467.277069,478.603516 463.173950,481.532166 454.801514,481.157776 
M461.922302,470.352753 
	C461.494354,464.473236 459.201355,461.783051 455.748230,463.316254 
	C452.016235,464.973236 452.430542,468.581848 453.072113,471.509491 
	C453.460419,473.281494 455.396942,475.606537 457.053925,476.021484 
	C460.453552,476.872742 461.401459,473.970734 461.922302,470.352753 
z"/>
<path fill="#F5FCFE" opacity="1.000000" stroke="none" 
	d="
M686.135498,481.099915 
	C675.589478,481.874481 670.108032,475.124329 672.903503,465.398651 
	C674.087952,461.277740 676.800964,458.824646 680.937134,458.160187 
	C685.286743,457.461395 689.285950,458.283386 692.079773,462.103333 
	C696.830872,468.599518 694.068237,477.922241 686.135498,481.099915 
M686.809448,464.840576 
	C684.898376,464.434967 681.618469,463.236115 681.314026,463.761536 
	C680.018311,465.997375 679.106995,468.733368 679.052612,471.307800 
	C679.019714,472.867767 680.737854,475.706329 681.800293,475.769531 
	C683.591370,475.876190 686.553528,474.642273 687.093079,473.233154 
	C687.948792,470.998413 687.213867,468.154724 686.809448,464.840576 
z"/>
<path fill="#F5FCFE" opacity="1.000000" stroke="none" 
	d="
M205.533386,477.312805 
	C201.111847,467.989075 204.055588,459.523773 211.867126,458.132141 
	C217.488785,457.130646 222.208282,459.453979 224.250412,464.228210 
	C226.597015,469.714294 225.002701,476.755676 220.758774,479.649506 
	C216.363037,482.646790 210.376434,481.832397 205.533386,477.312805 
M213.611237,476.201355 
	C215.277145,474.980469 218.134369,473.939301 218.351471,472.499908 
	C218.755585,469.820496 218.368988,466.416138 216.924927,464.229065 
	C215.392487,461.908142 212.440918,462.543915 210.701721,465.032349 
	C208.696259,467.901825 209.808395,473.384277 213.611237,476.201355 
z"/>
<path fill="#F5FCFE" opacity="1.000000" stroke="none" 
	d="
M594.101440,464.310852 
	C591.871033,463.643738 589.613342,462.701538 587.857300,463.280640 
	C584.517090,464.382080 583.785583,462.797607 582.991150,459.042084 
	C587.055481,458.740540 590.914978,457.976074 594.678040,458.307190 
	C598.573303,458.649994 600.823730,461.454651 600.905212,465.500946 
	C601.005249,470.465302 600.929016,475.433197 600.929016,481.296417 
	C598.669678,480.727203 596.895935,480.280304 594.254700,479.614868 
	C592.897278,480.001617 590.446350,481.130829 587.926086,481.316071 
	C584.226074,481.588074 581.472473,479.898407 580.902893,475.836395 
	C580.345703,471.862549 581.644226,468.888062 585.781250,467.858093 
	C587.851746,467.342621 590.076599,467.433502 592.133850,466.884247 
	C592.987610,466.656342 593.586060,465.472046 594.101440,464.310852 
M588.559021,471.679199 
	C588.357300,473.105042 587.813660,474.615326 588.133972,475.912292 
	C588.250549,476.384369 590.851013,476.939789 591.572449,476.420715 
	C593.071289,475.342285 594.071716,473.571259 595.277039,472.084900 
	C594.994019,471.679016 594.710999,471.273132 594.427979,470.867249 
	C592.692566,470.994843 590.957092,471.122406 588.559021,471.679199 
z"/>
<path fill="#F5FCFE" opacity="1.000000" stroke="none" 
	d="
M823.965149,476.735260 
	C823.526672,478.452881 823.153381,480.731110 822.638184,480.763641 
	C821.119324,480.859528 819.544373,480.066010 817.263977,479.411896 
	C814.233154,481.421906 809.971741,483.014404 806.204224,479.746063 
	C804.598755,478.353302 803.613831,474.816956 804.122742,472.677124 
	C805.794739,465.647461 812.480042,467.814331 817.400757,466.542206 
	C817.186035,461.509460 813.622009,462.389679 811.026428,463.214569 
	C807.893188,464.210358 806.731934,463.212250 806.016541,458.946594 
	C810.265686,458.753510 814.429443,458.050385 818.451050,458.532440 
	C822.149353,458.975739 823.885681,462.047974 823.934448,465.806213 
	C823.979736,469.293579 823.957764,472.781799 823.965149,476.735260 
M810.517090,472.850647 
	C811.441956,474.174713 812.332153,476.591919 813.297974,476.622559 
	C816.482300,476.723541 817.817810,474.545410 817.496399,470.394470 
	C815.101074,471.063293 813.035156,471.640137 810.517090,472.850647 
z"/>
<path fill="#F5FCFE" opacity="1.000000" stroke="none" 
	d="
M103.954720,476.816406 
	C100.009453,467.395325 103.035744,459.411621 110.722610,458.118042 
	C116.567741,457.134399 121.304367,459.665985 123.213837,464.794250 
	C125.276054,470.332733 123.601433,476.943573 119.438591,479.697662 
	C114.794037,482.770538 108.631645,481.744873 103.954720,476.816406 
M115.010902,475.911316 
	C118.591156,472.976898 118.219498,469.127838 116.794350,465.543823 
	C115.591469,462.518707 112.186752,461.710876 110.465385,464.210876 
	C108.929909,466.440948 108.762726,470.101227 109.173721,472.960419 
	C109.356308,474.230682 112.446632,475.082916 115.010902,475.911316 
z"/>
<path fill="#F6FDFE" opacity="1.000000" stroke="none" 
	d="
M893.264587,471.890198 
	C895.045532,477.302795 895.900269,477.531647 905.470520,475.539032 
	C906.944885,479.185944 905.352844,480.591370 901.805664,481.145599 
	C892.157471,482.653076 885.997375,478.063202 886.261475,469.355896 
	C886.486023,461.951111 890.900879,457.636993 897.874207,458.008209 
	C904.503052,458.361145 907.577759,462.724213 906.655151,471.525238 
	C902.333191,471.525238 897.898254,471.525238 893.264587,471.890198 
M900.117126,463.776825 
	C896.401611,461.358093 894.144531,462.339508 892.795532,467.046356 
	C895.291687,467.046356 897.295654,467.253479 899.207092,466.924133 
	C899.805542,466.821014 900.154846,465.272491 900.117126,463.776825 
z"/>
<path fill="#F3FCFD" opacity="1.000000" stroke="none" 
	d="
M791.686401,463.561768 
	C788.063843,466.938019 787.790710,471.177002 790.290527,474.108551 
	C791.873108,475.964417 795.975403,475.671631 799.600098,476.489838 
	C800.542175,479.826630 800.542175,479.826630 794.994263,481.827637 
	C796.870728,485.030945 798.954712,488.637787 793.777466,490.482239 
	C792.149475,491.062225 789.926514,489.971802 787.975830,489.645966 
	C789.060120,488.452545 790.144348,487.259094 791.690552,485.557098 
	C789.795654,483.483887 787.405579,480.937927 785.093750,478.322754 
	C781.885254,474.693512 781.756287,465.898438 784.795593,461.845398 
	C787.928101,457.668152 794.060120,456.782379 800.457031,459.751770 
	C800.018860,461.088684 799.569458,462.459717 799.168518,463.682983 
	C796.568726,463.563202 794.301575,463.458710 791.686401,463.561768 
z"/>
<path fill="#EFFBFD" opacity="1.000000" stroke="none" 
	d="
M66.489090,471.490417 
	C60.883492,468.623383 59.110004,465.404633 60.901951,461.768799 
	C62.962234,457.588531 69.662804,456.726807 77.005692,459.911102 
	C76.521515,461.195923 76.029846,462.500671 75.587433,463.674713 
	C72.588364,463.358276 69.919472,463.076691 67.250580,462.795105 
	C67.042648,463.326263 66.834724,463.857452 66.626793,464.388641 
	C68.285362,465.365173 69.874069,466.495819 71.617126,467.285980 
	C75.187119,468.904236 78.112228,470.912262 77.376030,475.452576 
	C76.588959,480.306702 72.846786,481.132111 68.837601,481.402527 
	C61.594849,481.890930 59.996208,480.720490 60.739010,475.835663 
	C64.133423,476.081818 67.518242,476.327271 70.903061,476.572723 
	C71.069061,475.931122 71.235062,475.289520 71.401070,474.647919 
	C69.873627,473.655304 68.346191,472.662689 66.489090,471.490417 
z"/>
<path fill="#F6FDFE" opacity="1.000000" stroke="none" 
	d="
M664.960083,477.707001 
	C664.842834,483.212280 661.287231,480.214661 658.701477,481.139252 
	C658.701477,477.190979 658.790588,473.733124 658.675293,470.282135 
	C658.569336,467.110046 660.252258,463.130371 655.539795,462.349091 
	C656.978699,458.856445 658.126648,455.626282 659.619690,452.564423 
	C661.283630,449.152283 665.784912,448.444336 671.663574,450.401703 
	C674.002258,456.955536 664.196777,452.133362 665.177551,457.629303 
	C667.031372,458.778290 671.980347,457.439789 669.664062,462.807251 
	C668.377563,462.946472 666.945312,463.101501 664.961853,463.316162 
	C664.961853,468.023621 664.961853,472.632019 664.960083,477.707001 
z"/>
<path fill="#F5FCFE" opacity="1.000000" stroke="none" 
	d="
M311.348480,470.730133 
	C307.724030,468.974304 305.649414,465.996399 307.292236,462.935516 
	C308.509857,460.666840 311.803833,458.851837 314.497192,458.222504 
	C317.171173,457.597687 320.250580,458.707977 323.702484,459.123596 
	C322.985718,461.203674 322.527863,462.532501 322.119385,463.717926 
	C319.034729,463.345825 316.318787,463.018188 313.602844,462.690552 
	C313.382019,463.207764 313.161163,463.724976 312.940338,464.242188 
	C314.572968,465.231934 316.126221,466.398193 317.854492,467.175171 
	C321.590210,468.854462 324.794617,470.898773 323.860870,475.681396 
	C322.928986,480.454468 319.082397,481.177643 315.079773,481.393677 
	C308.068451,481.772186 306.795380,480.817169 307.281952,475.814087 
	C310.662140,476.087677 314.053223,476.362122 317.444305,476.636597 
	C317.665894,475.926270 317.887451,475.215942 318.109009,474.505585 
	C315.969604,473.305023 313.830200,472.104462 311.348480,470.730133 
z"/>
<path fill="#EFFBFD" opacity="1.000000" stroke="none" 
	d="
M432.863770,453.912262 
	C434.728943,454.608307 436.278809,455.479401 437.828644,456.350494 
	C437.577820,456.804260 437.327026,457.258026 437.076202,457.711792 
	C439.198456,458.991272 444.497711,456.608704 442.574249,462.719696 
	C440.941956,462.914948 439.185852,463.124969 437.464874,463.330811 
	C435.194763,473.337311 436.259033,475.982788 444.195374,476.531921 
	C442.633270,478.500854 441.784546,480.682526 440.500885,480.978668 
	C436.744904,481.845154 432.463745,482.216553 430.999268,477.358093 
	C430.161652,474.579315 430.589813,471.443085 430.156830,468.510773 
	C429.805054,466.128601 429.019470,463.810486 428.215210,460.628815 
	C429.191986,459.154236 430.870209,456.620789 432.863770,453.912262 
z"/>
<path fill="#F6FDFE" opacity="1.000000" stroke="none" 
	d="
M936.111084,453.579895 
	C937.194031,454.923035 937.903076,456.241364 938.922363,458.136627 
	C940.466309,458.938843 945.649719,456.702545 943.691040,462.769470 
	C942.039795,462.935150 940.280945,463.111603 938.564697,463.283783 
	C936.477234,473.896484 937.373657,476.080566 944.025208,476.369446 
	C944.721924,478.846313 944.854431,480.907410 941.366516,481.203064 
	C937.432556,481.536469 933.307190,481.894531 932.106995,476.941833 
	C931.417786,474.097900 931.953613,470.977264 931.505676,468.047302 
	C931.231384,466.253571 930.130127,464.588348 929.417542,462.858307 
	C929.186340,462.296997 928.662781,461.416534 928.860718,461.185333 
	C931.086609,458.585175 933.427246,456.083344 936.111084,453.579895 
z"/>
<path fill="#EFFBFD" opacity="1.000000" stroke="none" 
	d="
M882.655273,477.816284 
	C881.067261,482.595978 877.276001,481.262909 874.191040,481.262756 
	C870.390503,481.262543 867.545471,479.392517 866.041382,475.754333 
	C863.983704,470.777252 864.893250,463.742065 868.290161,460.772827 
	C872.715576,456.904602 877.673889,457.377777 883.104065,459.432465 
	C882.568604,461.010071 882.111084,462.358032 881.705017,463.554504 
	C881.108521,463.727325 880.803955,463.860504 880.487610,463.900208 
	C877.897522,464.225189 873.762085,463.702118 873.049377,465.026337 
	C871.747070,467.445709 871.593262,471.337708 872.693970,473.858551 
	C873.302429,475.251923 877.457397,475.006165 879.954041,475.710510 
	C880.941162,475.988983 881.766541,476.840942 882.655273,477.816284 
z"/>
<path fill="#F5FCFE" opacity="1.000000" stroke="none" 
	d="
M87.938690,458.498535 
	C91.699203,458.354523 95.076248,458.354523 99.152428,458.354523 
	C98.297676,460.983093 97.858986,462.332184 97.322937,463.980682 
	C88.691673,461.340851 85.648628,465.047729 87.831627,472.934631 
	C89.366226,478.478882 93.912262,475.693298 97.645332,475.245178 
	C99.390633,479.147614 97.781776,480.816681 93.781815,481.291321 
	C87.329094,482.057007 82.984581,479.815338 81.406097,474.677979 
	C79.263397,467.704163 81.530457,461.792114 87.938690,458.498535 
z"/>
<path fill="#F5FCFE" opacity="1.000000" stroke="none" 
	d="
M375.080414,476.177795 
	C377.259644,475.876923 379.028625,475.570709 380.840851,475.257019 
	C382.157135,479.002319 380.858307,480.947601 376.910126,481.256012 
	C372.242126,481.620667 367.825104,481.376831 365.221710,476.639435 
	C362.812256,472.255035 363.596619,464.380463 366.690063,461.076416 
	C369.970367,457.572754 375.594299,456.998444 381.744995,459.686096 
	C381.296997,461.013611 380.840607,462.365936 380.313660,463.927338 
	C376.225433,463.334473 371.420013,461.267517 370.454620,467.619568 
	C369.910034,471.202667 369.475922,475.202789 375.080414,476.177795 
z"/>
<path fill="#F5FCFE" opacity="1.000000" stroke="none" 
	d="
M250.200836,463.083588 
	C244.849655,465.279297 245.262390,469.536987 246.663284,473.260437 
	C248.620499,478.462463 252.983994,475.574371 256.570709,475.171722 
	C257.858154,478.852936 256.784241,480.914246 252.764862,481.238403 
	C248.109772,481.613861 243.674667,481.449249 241.032104,476.724518 
	C238.612686,472.398743 239.340179,464.452515 242.376236,461.140930 
	C245.622864,457.599609 251.268921,456.990997 257.413971,459.686218 
	C257.013184,461.015472 256.600830,462.383209 256.123901,463.965027 
	C254.103958,463.627899 252.351715,463.335449 250.200836,463.083588 
z"/>
<path fill="#F5FCFE" opacity="1.000000" stroke="none" 
	d="
M494.705566,481.350586 
	C489.499451,481.532745 485.075195,480.574371 483.491028,475.373993 
	C481.948578,470.310303 481.596497,464.937134 485.766846,460.872620 
	C489.961792,456.784119 495.064850,457.382416 500.475189,459.420593 
	C500.013184,460.992188 499.611511,462.358582 499.115204,464.046875 
	C490.232391,461.165131 487.457489,465.304321 489.555328,472.964569 
	C491.036438,478.373016 495.643494,475.839142 499.425873,475.132172 
	C501.327759,479.507263 499.152527,481.035706 494.705566,481.350586 
z"/>
<path fill="#F3FCFD" opacity="1.000000" stroke="none" 
	d="
M135.477478,464.011230 
	C135.477325,469.803528 135.477325,475.099609 135.477325,480.704132 
	C133.344147,480.704132 131.598068,480.704132 129.472717,480.704132 
	C129.472717,470.581116 129.472717,460.391205 129.472717,449.695465 
	C131.187164,449.619598 132.926880,449.542633 135.477615,449.429749 
	C135.477615,454.356293 135.477615,458.935638 135.477478,464.011230 
z"/>
<path fill="#EAF9FC" opacity="1.000000" stroke="none" 
	d="
M293.332886,458.409668 
	C294.249573,459.356293 294.799286,460.178650 295.159637,460.717682 
	C297.833405,459.605621 300.450806,458.516998 303.708740,457.161957 
	C303.708740,459.866913 303.708740,461.582123 303.708740,463.522369 
	C290.466248,464.131592 298.298676,474.956055 295.025787,480.810242 
	C293.492279,480.810242 291.720551,480.810242 289.311340,480.810242 
	C289.311340,474.102661 289.168182,467.501038 289.473816,460.920288 
	C289.517029,459.989899 291.747711,459.161133 293.332886,458.409668 
z"/>
<path fill="#EAF9FC" opacity="1.000000" stroke="none" 
	d="
M712.001587,463.900146 
	C707.420166,464.090027 705.733215,466.399353 705.831970,470.402710 
	C705.913208,473.695648 705.848511,476.992126 705.848511,480.660095 
	C703.608215,480.660095 701.740051,480.660095 699.315918,480.660095 
	C699.315918,474.001129 699.252075,467.399475 699.394348,460.802216 
	C699.412720,459.949371 700.700317,458.324432 701.052917,458.414581 
	C702.712036,458.838837 704.250000,459.736603 705.732544,460.419922 
	C708.043335,459.524933 710.651428,458.514801 713.259521,457.504669 
	C713.665466,457.889679 714.071472,458.274689 714.477478,458.659729 
	C713.791077,460.397430 713.104675,462.135132 712.001587,463.900146 
z"/>
<path fill="#EFFBFD" opacity="1.000000" stroke="none" 
	d="
M922.695862,458.259064 
	C928.192261,457.189331 926.933350,460.396057 926.396484,463.472168 
	C913.490051,464.079956 920.597229,474.577057 917.829407,480.739075 
	C916.314941,480.739075 914.562073,480.739075 912.446838,480.739075 
	C912.446838,473.567230 912.446838,466.363678 912.446838,457.924927 
	C914.676086,458.731873 916.585144,459.422913 919.215149,460.374908 
	C919.615723,460.117065 920.963501,459.249512 922.695862,458.259064 
z"/>
<path fill="#F6FDFE" opacity="1.000000" stroke="none" 
	d="
M410.970886,468.045654 
	C410.970886,464.604095 410.970886,461.650269 410.970886,457.371613 
	C413.668976,458.684814 415.426575,459.540253 417.289215,460.446838 
	C419.413605,459.595947 422.046875,458.541229 425.681580,457.085419 
	C425.457520,460.002228 425.326080,461.713318 425.188904,463.499146 
	C412.419678,464.364075 419.074799,474.443848 416.495331,480.797943 
	C415.146454,480.863190 413.409912,480.947174 410.970886,481.065125 
	C410.970886,476.714630 410.970886,472.623993 410.970886,468.045654 
z"/>
<path fill="#FDFFFF" opacity="1.000000" stroke="none" 
	d="
M618.009399,460.478638 
	C619.700378,459.277496 621.375610,458.527893 623.759644,457.461090 
	C623.759644,465.870483 623.759644,473.094940 623.759644,480.660217 
	C622.070801,480.660217 620.342102,480.660217 617.993591,480.660217 
	C617.993591,474.126709 617.993591,467.528442 618.009399,460.478638 
z"/>
<path fill="#EFFBFD" opacity="1.000000" stroke="none" 
	d="
M809.539551,455.455200 
	C808.441589,455.056610 806.830872,454.247528 806.925598,453.796967 
	C807.570923,450.727173 809.689270,449.498962 812.809143,449.867554 
	C815.927185,450.235931 819.055664,450.516144 822.368469,450.854279 
	C822.541260,454.763000 820.005066,456.747314 815.558533,455.526611 
	C813.751587,455.030579 811.736389,455.293182 809.539551,455.455200 
z"/>
<path fill="#EFFBFD" opacity="1.000000" stroke="none" 
	d="
M617.977417,453.659912 
	C618.846863,452.060944 619.618835,450.487946 620.879822,449.746307 
	C621.457031,449.406891 623.532410,450.449585 623.949463,451.329437 
	C624.370667,452.218079 623.616150,454.711609 623.315002,454.722015 
	C621.580139,454.782166 619.826843,454.314392 617.977417,453.659912 
z"/>
<path fill="#0DC0DF" opacity="1.000000" stroke="none" 
	d="
M729.762451,301.999878 
	C729.762390,272.240265 729.762390,242.980652 729.762390,213.167114 
	C735.474976,213.167114 740.594116,213.110764 745.711731,213.178162 
	C758.690491,213.349091 771.696350,213.119888 784.639038,213.908676 
	C797.422852,214.687775 802.654419,220.276520 802.601685,231.283234 
	C802.553955,241.248978 795.708862,247.845978 784.029785,248.913696 
	C779.727844,249.306976 775.379272,249.158981 771.061279,249.415283 
	C766.204895,249.703537 763.938354,252.534348 763.922791,257.273071 
	C763.895996,265.433655 763.846680,273.595032 763.927307,281.754852 
	C763.991211,288.227875 766.043396,290.324005 772.568787,290.773621 
	C778.529541,291.184326 784.601196,290.925201 790.438721,291.983368 
	C801.222534,293.938110 806.113892,300.399872 805.725159,310.832001 
	C805.336731,321.254608 799.546143,328.325043 788.889038,329.055756 
	C774.962402,330.010681 760.952271,329.769958 746.977173,329.986206 
	C741.502625,330.070923 736.025635,330.000061 729.762512,330.000061 
	C729.762512,320.650208 729.762512,311.575073 729.762451,301.999878 
z"/>
<path fill="#0EC0DE" opacity="1.000000" stroke="none" 
	d="
M91.894714,239.485779 
	C69.230949,228.367920 57.591789,202.840057 63.850750,178.576447 
	C70.263275,153.717529 92.767319,136.463699 117.784042,137.225815 
	C143.184631,137.999634 165.060287,156.416534 169.807755,181.024033 
	C174.443680,205.053467 164.022491,226.859604 141.367065,239.917236 
	C140.952667,221.045212 140.881226,202.090988 140.782272,183.136902 
	C140.771011,180.979904 140.704651,178.813812 140.490250,176.669281 
	C140.060867,172.374084 137.576324,169.953690 133.295166,169.913147 
	C121.987595,169.806061 110.674652,169.717224 99.371246,169.962433 
	C94.058289,170.077698 92.043556,172.852356 92.022942,179.150726 
	C91.957642,199.108139 91.972832,219.065826 91.894714,239.485779 
z"/>
<path fill="#0CC0DF" opacity="1.000000" stroke="none" 
	d="
M593.925110,225.190491 
	C606.576782,245.318726 596.624023,267.992340 573.439514,270.661652 
	C560.981995,272.095917 548.223511,270.916595 534.954407,270.916595 
	C534.954407,261.634003 534.954407,252.191727 534.954407,242.749451 
	C534.954407,233.280151 534.954407,223.810867 534.954407,213.953323 
	C547.364685,213.953323 559.436401,213.645432 571.483704,214.055786 
	C580.299133,214.356049 587.879333,218.047256 593.925110,225.190491 
z"/>
<path fill="#0EC0DE" opacity="1.000000" stroke="none" 
	d="
M912.665039,330.138245 
	C914.714050,333.525940 916.445740,336.695404 918.664124,340.755676 
	C909.413635,340.755676 901.849548,340.755676 894.279846,340.755676 
	C894.607971,329.866272 902.331848,325.286133 912.665039,330.138245 
z"/>
<path fill="#15C2E0" opacity="1.000000" stroke="none" 
	d="
M399.196106,466.880188 
	C396.671753,467.000977 394.538940,467.000977 392.406097,467.000977 
	C392.117920,466.613678 391.829742,466.226379 391.541565,465.839081 
	C392.879242,464.733734 394.112762,462.894958 395.577820,462.686920 
	C398.066406,462.333527 400.095673,463.583740 399.196106,466.880188 
z"/>
<path fill="#15C2E0" opacity="1.000000" stroke="none" 
	d="
M954.018433,473.942535 
	C956.027466,472.384491 958.017883,471.223328 960.008301,470.062195 
	C960.568542,470.627502 961.128845,471.192810 961.689087,471.758087 
	C960.617920,473.338715 959.847961,475.466492 958.358215,476.286652 
	C957.517517,476.749420 955.491760,475.059601 954.018433,473.942535 
z"/>
<path fill="#15C2E0" opacity="1.000000" stroke="none" 
	d="
M764.302795,475.471741 
	C764.072693,469.718567 767.760803,471.025299 770.901428,471.056946 
	C770.871033,476.452362 769.366333,477.501617 764.302795,475.471741 
z"/>
<path fill="#15C2E0" opacity="1.000000" stroke="none" 
	d="
M176.572815,471.099976 
	C178.249008,470.998627 179.513718,470.998627 182.463577,470.998627 
	C180.607742,473.488617 179.696289,475.368347 178.203156,476.429993 
	C177.486557,476.939545 175.670242,475.902405 174.351959,475.565704 
	C174.955093,474.110901 175.558228,472.656097 176.572815,471.099976 
z"/>
<path fill="#15C2E0" opacity="1.000000" stroke="none" 
	d="
M343.043030,468.309875 
	C342.947571,470.208801 343.381409,472.230530 342.583862,473.041992 
	C341.201233,474.448792 339.056335,475.106323 337.231079,476.078094 
	C336.150177,473.568451 334.290802,471.071075 334.250946,468.544983 
	C334.222443,466.738464 336.300507,463.842499 338.028809,463.294739 
	C341.171814,462.298584 342.651031,464.894684 343.043030,468.309875 
z"/>
<path fill="#15C2E0" opacity="1.000000" stroke="none" 
	d="
M840.001709,463.045532 
	C844.232788,465.217926 846.002686,472.016602 842.918457,474.619385 
	C841.638062,475.699921 837.894836,475.738831 836.679321,474.662170 
	C833.246643,471.621368 835.190735,464.933563 840.001709,463.045532 
z"/>
<path fill="#15C2E0" opacity="1.000000" stroke="none" 
	d="
M510.164856,469.176697 
	C510.573669,465.596375 511.428619,462.498627 515.461914,463.155151 
	C519.722229,463.848572 519.266541,467.546112 519.214417,470.655609 
	C519.167664,473.447357 518.592590,476.150391 514.993164,476.184784 
	C510.466705,476.227997 510.452637,472.754242 510.164856,469.176697 
z"/>
<path fill="#15C2E0" opacity="1.000000" stroke="none" 
	d="
M461.895691,470.764740 
	C461.401459,473.970734 460.453552,476.872742 457.053925,476.021484 
	C455.396942,475.606537 453.460419,473.281494 453.072113,471.509491 
	C452.430542,468.581848 452.016235,464.973236 455.748230,463.316254 
	C459.201355,461.783051 461.494354,464.473236 461.895691,470.764740 
z"/>
<path fill="#15C2E0" opacity="1.000000" stroke="none" 
	d="
M686.980652,465.204620 
	C687.213867,468.154724 687.948792,470.998413 687.093079,473.233154 
	C686.553528,474.642273 683.591370,475.876190 681.800293,475.769531 
	C680.737854,475.706329 679.019714,472.867767 679.052612,471.307800 
	C679.106995,468.733368 680.018311,465.997375 681.314026,463.761536 
	C681.618469,463.236115 684.898376,464.434967 686.980652,465.204620 
z"/>
<path fill="#15C2E0" opacity="1.000000" stroke="none" 
	d="
M213.197998,476.124573 
	C209.808395,473.384277 208.696259,467.901825 210.701721,465.032349 
	C212.440918,462.543915 215.392487,461.908142 216.924927,464.229065 
	C218.368988,466.416138 218.755585,469.820496 218.351471,472.499908 
	C218.134369,473.939301 215.277145,474.980469 213.197998,476.124573 
z"/>
<path fill="#15C2E0" opacity="1.000000" stroke="none" 
	d="
M588.890381,471.464600 
	C590.957092,471.122406 592.692566,470.994843 594.427979,470.867249 
	C594.710999,471.273132 594.994019,471.679016 595.277039,472.084900 
	C594.071716,473.571259 593.071289,475.342285 591.572449,476.420715 
	C590.851013,476.939789 588.250549,476.384369 588.133972,475.912292 
	C587.813660,474.615326 588.357300,473.105042 588.890381,471.464600 
z"/>
<path fill="#15C2E0" opacity="1.000000" stroke="none" 
	d="
M810.743164,472.533813 
	C813.035156,471.640137 815.101074,471.063293 817.496399,470.394470 
	C817.817810,474.545410 816.482300,476.723541 813.297974,476.622559 
	C812.332153,476.591919 811.441956,474.174713 810.743164,472.533813 
z"/>
<path fill="#15C2E0" opacity="1.000000" stroke="none" 
	d="
M114.614014,476.018097 
	C112.446632,475.082916 109.356308,474.230682 109.173721,472.960419 
	C108.762726,470.101227 108.929909,466.440948 110.465385,464.210876 
	C112.186752,461.710876 115.591469,462.518707 116.794350,465.543823 
	C118.219498,469.127838 118.591156,472.976898 114.614014,476.018097 
z"/>
<path fill="#15C2E0" opacity="1.000000" stroke="none" 
	d="
M900.367676,464.081177 
	C900.154846,465.272491 899.805542,466.821014 899.207092,466.924133 
	C897.295654,467.253479 895.291687,467.046356 892.795532,467.046356 
	C894.144531,462.339508 896.401611,461.358093 900.367676,464.081177 
z"/>
</svg>