<svg version="1.1" id="Layer_1" xmlns="http://www.w3.org/2000/svg" xmlns:xlink="http://www.w3.org/1999/xlink" x="0px" y="0px"
	 width="100%" viewBox="0 0 1004 591" enable-background="new 0 0 1004 591" xml:space="preserve">
<path fill="#FFFFFF" opacity="1.000000" stroke="none" 
	d="
M569.000000,592.000000 
	C379.333344,592.000000 190.166672,592.000000 1.000000,592.000000 
	C1.000000,395.000000 1.000000,198.000000 1.000000,1.000000 
	C335.666656,1.000000 670.333313,1.000000 1005.000000,1.000000 
	C1005.000000,198.000000 1005.000000,395.000000 1005.000000,592.000000 
	C859.833313,592.000000 714.666687,592.000000 569.000000,592.000000 
M548.500000,438.002808 
	C581.580139,438.002808 614.660278,438.002808 647.629700,438.002808 
	C647.629700,326.792969 647.629700,216.272034 647.629700,105.737038 
	C536.722656,105.737038 426.188843,105.737038 315.752563,105.737038 
	C315.752563,216.625076 315.752563,327.172607 315.752563,438.002808 
	C393.238617,438.002808 470.369324,438.002808 548.500000,438.002808 
z"/>
<path fill="#0DC0DF" opacity="1.000000" stroke="none" 
	d="
M548.000000,438.002808 
	C470.369324,438.002808 393.238617,438.002808 315.752563,438.002808 
	C315.752563,327.172607 315.752563,216.625076 315.752563,105.737038 
	C426.188843,105.737038 536.722656,105.737038 647.629700,105.737038 
	C647.629700,216.272034 647.629700,326.792969 647.629700,438.002808 
	C614.660278,438.002808 581.580139,438.002808 548.000000,438.002808 
M474.725555,287.975037 
	C517.001526,271.882233 537.144958,225.314285 519.744995,183.898148 
	C502.632080,143.165268 455.178558,124.703087 414.630157,143.328522 
	C394.441986,152.601715 380.407867,168.033951 373.288361,189.082809 
	C364.641449,214.647217 369.339264,238.556335 384.302826,261.028809 
	C369.462189,275.838989 354.729614,290.532867 340.012299,305.242065 
	C338.600952,306.652618 337.161224,308.063385 335.949341,309.639160 
	C333.044922,313.415741 332.746338,317.593567 334.662506,321.870331 
	C336.621033,326.241547 340.404785,329.086945 344.868134,328.505859 
	C348.651337,328.013245 352.890198,326.036377 355.635437,323.380737 
	C371.071625,308.448425 386.116882,293.112030 400.615906,278.594025 
	C409.075378,282.288452 416.938385,285.722412 424.907227,290.068451 
	C424.934784,304.728546 424.875153,319.389404 425.009613,334.048523 
	C425.230469,358.124634 435.750946,376.623413 456.896973,387.879120 
	C488.173798,404.527313 520.588440,404.640656 552.541626,390.083466 
	C575.260071,379.733337 588.529358,361.446655 588.838013,335.987183 
	C589.383179,291.012146 589.028931,246.025909 588.994568,201.044388 
	C588.989075,193.908020 586.549744,191.520493 579.281555,191.429214 
	C570.286682,191.316238 561.289307,191.394516 552.292969,191.401947 
	C542.265869,191.410233 540.244202,193.393066 540.241089,203.316315 
	C540.230652,236.302841 540.246399,269.289368 540.231018,302.275879 
	C540.226746,311.438019 540.504456,320.619049 540.017456,329.757538 
	C539.384827,341.626801 533.488770,350.272156 522.205872,354.525177 
	C512.209839,358.292999 501.880066,358.326019 491.872894,354.734833 
	C480.961243,350.819092 474.625671,342.532654 474.115540,331.051483 
	C473.480530,316.759277 473.979095,302.416656 474.725555,287.975037 
z"/>
<path fill="#FDFFFF" opacity="1.000000" stroke="none" 
	d="
M473.988159,288.095825 
	C473.979095,302.416656 473.480530,316.759277 474.115540,331.051483 
	C474.625671,342.532654 480.961243,350.819092 491.872894,354.734833 
	C501.880066,358.326019 512.209839,358.292999 522.205872,354.525177 
	C533.488770,350.272156 539.384827,341.626801 540.017456,329.757538 
	C540.504456,320.619049 540.226746,311.438019 540.231018,302.275879 
	C540.246399,269.289368 540.230652,236.302841 540.241089,203.316315 
	C540.244202,193.393066 542.265869,191.410233 552.292969,191.401947 
	C561.289307,191.394516 570.286682,191.316238 579.281555,191.429214 
	C586.549744,191.520493 588.989075,193.908020 588.994568,201.044388 
	C589.028931,246.025909 589.383179,291.012146 588.838013,335.987183 
	C588.529358,361.446655 575.260071,379.733337 552.541626,390.083466 
	C520.588440,404.640656 488.173798,404.527313 456.896973,387.879120 
	C435.750946,376.623413 425.230469,358.124634 425.009613,334.048523 
	C424.875153,319.389404 424.934784,304.728546 424.922058,289.138306 
	C424.917419,279.986969 424.897949,271.765778 424.916321,263.032654 
	C424.962616,241.855392 424.937744,221.189957 424.999847,200.524796 
	C425.018555,194.305771 427.187988,191.662155 433.173492,191.513077 
	C443.999054,191.243469 454.837982,191.321045 465.667511,191.494064 
	C470.241913,191.567139 473.158752,194.021851 473.517670,198.853867 
	C473.665497,200.843979 473.730957,202.843964 473.740936,204.839935 
	C473.835846,223.833649 473.910767,242.827469 473.933777,262.298401 
	C473.913483,271.215637 473.950836,279.655731 473.988159,288.095825 
z"/>
<path fill="#FDDE5A" opacity="1.000000" stroke="none" 
	d="
M474.356873,288.035431 
	C473.950836,279.655731 473.913483,271.215637 474.237976,262.163788 
	C496.181854,248.139404 506.185516,225.437958 500.311920,202.354004 
	C494.824341,180.786957 481.139526,166.755539 459.506836,161.726761 
	C438.627014,156.872955 420.680603,163.359558 406.432739,179.239563 
	C382.742920,205.643127 392.689575,250.641083 424.878479,263.544586 
	C424.897949,271.765778 424.917419,279.986969 424.869141,288.682251 
	C416.938385,285.722412 409.075378,282.288452 400.615906,278.594025 
	C386.116882,293.112030 371.071625,308.448425 355.635437,323.380737 
	C352.890198,326.036377 348.651337,328.013245 344.868134,328.505859 
	C340.404785,329.086945 336.621033,326.241547 334.662506,321.870331 
	C332.746338,317.593567 333.044922,313.415741 335.949341,309.639160 
	C337.161224,308.063385 338.600952,306.652618 340.012299,305.242065 
	C354.729614,290.532867 369.462189,275.838989 384.302826,261.028809 
	C369.339264,238.556335 364.641449,214.647217 373.288361,189.082809 
	C380.407867,168.033951 394.441986,152.601715 414.630157,143.328522 
	C455.178558,124.703087 502.632080,143.165268 519.744995,183.898148 
	C537.144958,225.314285 517.001526,271.882233 474.356873,288.035431 
z"/>
<path fill="#0EC0DE" opacity="1.000000" stroke="none" 
	d="
M424.916321,263.032654 
	C392.689575,250.641083 382.742920,205.643127 406.432739,179.239563 
	C420.680603,163.359558 438.627014,156.872955 459.506836,161.726761 
	C481.139526,166.755539 494.824341,180.786957 500.311920,202.354004 
	C506.185516,225.437958 496.181854,248.139404 474.295593,261.686646 
	C473.910767,242.827469 473.835846,223.833649 473.740936,204.839935 
	C473.730957,202.843964 473.665497,200.843979 473.517670,198.853867 
	C473.158752,194.021851 470.241913,191.567139 465.667511,191.494064 
	C454.837982,191.321045 443.999054,191.243469 433.173492,191.513077 
	C427.187988,191.662155 425.018555,194.305771 424.999847,200.524796 
	C424.937744,221.189957 424.962616,241.855392 424.916321,263.032654 
z"/>
</svg>