<svg version="1.1" id="Layer_1" xmlns="http://www.w3.org/2000/svg" xmlns:xlink="http://www.w3.org/1999/xlink" x="0px" y="0px"
	 width="100%" viewBox="0 0 1004 591" enable-background="new 0 0 1004 591" xml:space="preserve">
<path fill="#0CC0DF" opacity="1.000000" stroke="none" 
	d="
M593.000000,592.000000 
	C395.333344,592.000000 198.166672,592.000000 1.000000,592.000000 
	C1.000000,395.000000 1.000000,198.000000 1.000000,1.000000 
	C335.666656,1.000000 670.333313,1.000000 1005.000000,1.000000 
	C1005.000000,198.000000 1005.000000,395.000000 1005.000000,592.000000 
	C867.833313,592.000000 730.666687,592.000000 593.000000,592.000000 
M91.969406,266.875061 
	C91.979080,281.369415 91.965919,295.863800 92.003189,310.358093 
	C92.079971,340.216492 107.277756,361.731201 135.446396,371.944763 
	C158.761673,380.398499 182.391266,381.085968 206.059723,373.995850 
	C236.766129,364.797455 257.088104,342.768677 256.258850,307.123016 
	C255.398926,270.157684 256.070709,233.156769 256.065094,196.171417 
	C256.064148,190.007538 256.175415,183.838333 255.957809,177.681381 
	C255.770233,172.373886 253.445419,169.977112 248.201920,169.898636 
	C237.208878,169.734070 226.211227,169.794586 215.216293,169.874619 
	C210.461044,169.909225 207.814438,172.446396 207.512131,177.241501 
	C207.386490,179.234100 207.359085,181.235550 207.358658,183.233002 
	C207.350128,222.217560 207.359268,261.202118 207.338898,300.186676 
	C207.337250,303.349152 207.387131,306.540863 207.002853,309.668610 
	C205.731949,320.012451 200.612015,327.780121 190.941879,332.072906 
	C181.768051,336.145355 172.191254,336.214050 162.569977,334.036194 
	C150.222092,331.241241 141.511246,321.584503 141.094147,309.092651 
	C140.616486,294.787292 141.015152,280.452667 141.774368,266.013428 
	C179.505005,251.968643 200.915939,215.278946 193.471375,177.425629 
	C185.410934,136.440750 150.575943,110.397774 108.473854,113.880653 
	C63.353054,117.613251 30.342365,161.910141 39.512096,206.201859 
	C41.904980,217.759964 46.452976,228.299942 53.390945,238.230927 
	C38.303478,253.244095 23.429955,268.032349 8.578265,282.842468 
	C7.167305,284.249481 5.716601,285.671112 4.588387,287.296936 
	C1.225632,292.142944 1.813577,298.419739 5.835648,302.373474 
	C10.183715,306.647675 16.421001,307.252533 21.338079,303.721252 
	C22.947353,302.565552 24.345667,301.096497 25.755610,299.685913 
	C40.586067,284.848694 55.399311,269.994293 69.706154,255.656876 
	C77.442894,259.252075 84.637711,262.595459 91.969406,266.875061 
M711.500000,374.002228 
	C734.328491,374.002136 757.175110,374.543579 779.977844,373.777222 
	C791.668274,373.384308 803.662415,371.972839 814.854736,368.728973 
	C846.516052,359.552582 862.454102,327.798431 852.001953,296.715698 
	C847.711548,283.956787 839.128601,274.840759 827.158691,268.437744 
	C830.019470,266.180420 832.803955,264.349670 835.154419,262.071106 
	C855.392944,242.451859 853.343262,204.763412 831.148499,186.168716 
	C817.610046,174.826294 801.502197,170.559769 784.402405,169.902985 
	C767.761719,169.263885 751.084412,169.545395 734.422913,169.491516 
	C719.926208,169.444641 705.427673,169.370407 690.932922,169.549408 
	C682.902039,169.648575 681.018005,171.810730 681.000916,179.804916 
	C680.981384,188.969604 680.995300,198.134384 680.995361,207.299118 
	C680.995667,259.454834 680.988342,311.610565 681.004456,363.766296 
	C681.006958,371.780090 683.089966,373.903625 691.004211,373.986450 
	C697.502197,374.054443 704.001343,374.001526 711.500000,374.002228 
M486.131531,214.499969 
	C486.130859,263.825806 486.122894,313.151642 486.135803,362.477478 
	C486.138306,372.019135 488.112671,373.996063 497.444427,374.001740 
	C506.443085,374.007202 515.441772,374.018494 524.440369,373.998260 
	C532.624084,373.979828 534.907471,371.789551 534.938721,363.682373 
	C534.994019,349.351410 534.955627,335.020111 534.956421,320.688934 
	C534.956482,318.413849 534.956360,316.138763 534.956360,313.033417 
	C548.124939,313.033417 560.624146,313.450897 573.084595,312.933167 
	C590.698364,312.201294 607.243530,307.677765 621.606384,296.841919 
	C653.375549,272.874146 651.093445,222.492294 633.654968,199.011993 
	C618.682251,178.851807 597.464355,171.110870 573.683472,170.203888 
	C547.723755,169.213791 521.700439,169.841675 495.704926,169.871597 
	C488.402863,169.880005 486.193878,172.209290 486.151611,179.505173 
	C486.085999,190.836426 486.132477,202.168335 486.131531,214.499969 
M319.503754,169.831207 
	C315.339661,169.872177 311.175690,169.931107 307.011475,169.949371 
	C302.293304,169.970047 300.029663,172.570206 299.654633,177.027161 
	C299.473450,179.180176 299.511932,181.354706 299.511597,183.519485 
	C299.504608,229.174210 299.505341,274.828949 299.506653,320.483673 
	C299.507080,334.813232 299.455475,349.143158 299.538818,363.472260 
	C299.589417,372.171509 301.466095,373.951233 310.260010,373.991089 
	C319.590729,374.033356 328.921783,374.007538 338.252686,373.999115 
	C346.824249,373.991333 348.097992,372.787445 348.113586,364.224274 
	C348.153992,342.063507 348.131409,319.902557 348.133942,297.741699 
	C348.134125,295.967346 348.133972,294.192963 348.133972,292.001068 
	C350.552124,292.001068 352.351135,292.001068 354.150146,292.001068 
	C377.644012,292.001068 401.137848,292.002502 424.631714,292.000488 
	C436.630615,291.999481 437.922638,290.727905 437.927765,278.933075 
	C437.930237,273.267883 437.934509,267.602692 437.926483,261.937500 
	C437.911285,251.209198 436.251556,249.507065 425.473175,249.493103 
	C401.812714,249.462433 378.152222,249.483032 354.491730,249.482697 
	C352.551117,249.482666 350.610535,249.482681 348.479614,249.482681 
	C348.479614,237.069031 348.479614,225.350922 348.479614,213.168808 
	C350.611847,213.168808 352.412842,213.168808 354.213806,213.168808 
	C381.873230,213.168793 409.532684,213.169983 437.192108,213.168213 
	C449.991180,213.167404 450.939301,212.197830 450.941193,199.141129 
	C450.942017,193.309326 450.952301,187.477478 450.938293,181.645706 
	C450.913940,171.506485 449.252106,169.840759 438.971466,169.837097 
	C399.481781,169.823074 359.992126,169.831284 319.503754,169.831207 
M933.287048,347.451935 
	C933.191162,344.623077 933.279480,341.773590 932.965027,338.969269 
	C932.020630,330.549377 928.321899,323.718933 920.766357,319.452454 
	C906.706299,311.512939 887.198120,316.650146 880.193970,330.042450 
	C871.259460,347.125824 876.952271,369.796661 891.963196,376.901398 
	C892.564575,377.186066 893.163818,377.491364 893.793335,377.697968 
	C904.963440,381.363251 916.076904,381.021515 927.030151,376.909424 
	C928.239075,376.455566 929.646423,374.793335 929.785156,373.559296 
	C930.164612,370.181915 929.915894,366.733917 929.915894,362.830109 
	C927.741943,363.643707 926.254761,364.519958 924.677490,364.734802 
	C918.144165,365.624634 911.551575,367.122406 905.041626,366.863678 
	C897.678833,366.571106 893.090942,359.483398 894.573303,352.229675 
	C906.149475,352.229675 917.795044,352.120697 929.436096,352.301849 
	C932.572632,352.350647 933.744507,351.352661 933.287048,347.451935 
M947.175964,328.375244 
	C949.380188,331.704010 951.179993,335.411652 953.871277,338.284149 
	C959.831848,344.646210 959.086182,350.122742 953.789734,356.671448 
	C948.329834,363.422272 944.006409,371.092224 938.756348,379.007507 
	C944.405090,379.007507 949.057678,378.771240 953.672485,379.087036 
	C956.982422,379.313538 958.768677,378.105774 960.359924,375.279144 
	C963.570435,369.576416 967.195740,364.107208 971.014038,357.955017 
	C975.069458,364.559052 978.568970,370.378296 982.219543,376.101196 
	C982.953430,377.251770 984.223694,378.807434 985.310791,378.860321 
	C990.996704,379.136932 996.703247,378.989502 1003.195251,378.989502 
	C995.822144,367.903656 989.035339,357.699280 982.194153,347.413147 
	C988.812012,337.413422 995.293274,327.620209 1002.287537,317.051727 
	C996.444824,317.051727 991.498901,316.763062 986.617126,317.196747 
	C984.720276,317.365295 982.358459,318.736786 981.262390,320.299530 
	C977.694336,325.386444 974.613098,330.814819 970.993530,336.680511 
	C967.248718,330.543213 964.060608,325.118011 960.631531,319.849670 
	C959.845337,318.641876 958.269104,317.253387 956.988586,317.183014 
	C951.593140,316.886597 946.171997,317.057617 939.877380,317.057617 
	C942.529602,321.142761 944.673706,324.445374 947.175964,328.375244 
z"/>
<path fill="#FEFFFF" opacity="1.000000" stroke="none" 
	d="
M711.000000,374.002228 
	C704.001343,374.001526 697.502197,374.054443 691.004211,373.986450 
	C683.089966,373.903625 681.006958,371.780090 681.004456,363.766296 
	C680.988342,311.610565 680.995667,259.454834 680.995361,207.299118 
	C680.995300,198.134384 680.981384,188.969604 681.000916,179.804916 
	C681.018005,171.810730 682.902039,169.648575 690.932922,169.549408 
	C705.427673,169.370407 719.926208,169.444641 734.422913,169.491516 
	C751.084412,169.545395 767.761719,169.263885 784.402405,169.902985 
	C801.502197,170.559769 817.610046,174.826294 831.148499,186.168716 
	C853.343262,204.763412 855.392944,242.451859 835.154419,262.071106 
	C832.803955,264.349670 830.019470,266.180420 827.158691,268.437744 
	C839.128601,274.840759 847.711548,283.956787 852.001953,296.715698 
	C862.454102,327.798431 846.516052,359.552582 814.854736,368.728973 
	C803.662415,371.972839 791.668274,373.384308 779.977844,373.777222 
	C757.175110,374.543579 734.328491,374.002136 711.000000,374.002228 
M782.365723,290.847290 
	C778.869080,290.807068 775.357239,290.959137 771.879272,290.683624 
	C765.994812,290.217529 764.007812,288.038055 763.934204,282.057434 
	C763.835815,274.063416 763.843811,266.066742 763.923645,258.072357 
	C763.985046,251.929520 766.061768,249.723969 772.253601,249.274994 
	C775.902832,249.010406 779.585510,249.216644 783.236938,248.970779 
	C795.186340,248.166153 802.349060,241.675339 802.596680,231.575470 
	C802.869507,220.449890 797.545288,214.552460 784.429504,213.915955 
	C767.149719,213.077377 749.814880,213.366867 732.503479,213.201599 
	C731.721069,213.194138 730.935791,213.484512 730.053101,213.655258 
	C730.053101,252.417252 730.053101,290.975555 730.053101,330.000061 
	C738.796143,330.000061 747.252930,330.093719 755.706848,329.976776 
	C766.686829,329.824951 777.709534,330.035461 788.630676,329.109589 
	C799.603516,328.179413 805.504761,321.157135 805.735657,310.588318 
	C805.964111,300.132996 801.076050,294.176270 790.213257,291.835327 
	C787.949280,291.347412 785.612610,291.196869 782.365723,290.847290 
z"/>
<path fill="#FDFFFF" opacity="1.000000" stroke="none" 
	d="
M141.033081,266.130737 
	C141.015152,280.452667 140.616486,294.787292 141.094147,309.092651 
	C141.511246,321.584503 150.222092,331.241241 162.569977,334.036194 
	C172.191254,336.214050 181.768051,336.145355 190.941879,332.072906 
	C200.612015,327.780121 205.731949,320.012451 207.002853,309.668610 
	C207.387131,306.540863 207.337250,303.349152 207.338898,300.186676 
	C207.359268,261.202118 207.350128,222.217560 207.358658,183.233002 
	C207.359085,181.235550 207.386490,179.234100 207.512131,177.241501 
	C207.814438,172.446396 210.461044,169.909225 215.216293,169.874619 
	C226.211227,169.794586 237.208878,169.734070 248.201920,169.898636 
	C253.445419,169.977112 255.770233,172.373886 255.957809,177.681381 
	C256.175415,183.838333 256.064148,190.007538 256.065094,196.171417 
	C256.070709,233.156769 255.398926,270.157684 256.258850,307.123016 
	C257.088104,342.768677 236.766129,364.797455 206.059723,373.995850 
	C182.391266,381.085968 158.761673,380.398499 135.446396,371.944763 
	C107.277756,361.731201 92.079971,340.216492 92.003189,310.358093 
	C91.965919,295.863800 91.979080,281.369415 91.955872,265.945557 
	C91.905739,256.660095 91.869133,248.304123 91.894714,239.485779 
	C91.972832,219.065826 91.957642,199.108154 92.022942,179.150742 
	C92.043549,172.852386 94.058289,170.077682 99.371231,169.962418 
	C110.674637,169.717209 121.987579,169.806061 133.295151,169.913147 
	C137.576294,169.953690 140.060883,172.374054 140.490265,176.669266 
	C140.704636,178.813797 140.771011,180.979889 140.782272,183.136887 
	C140.881226,202.090973 140.952667,221.045212 140.965057,240.464172 
	C140.942917,249.329529 140.987991,257.730133 141.033081,266.130737 
z"/>
<path fill="#FDFFFF" opacity="1.000000" stroke="none" 
	d="
M486.131500,213.999969 
	C486.132477,202.168335 486.085999,190.836426 486.151611,179.505173 
	C486.193878,172.209290 488.402863,169.880005 495.704926,169.871597 
	C521.700439,169.841675 547.723755,169.213791 573.683472,170.203888 
	C597.464355,171.110870 618.682251,178.851807 633.654968,199.011993 
	C651.093445,222.492294 653.375549,272.874146 621.606384,296.841919 
	C607.243530,307.677765 590.698364,312.201294 573.084595,312.933167 
	C560.624146,313.450897 548.124939,313.033417 534.956360,313.033417 
	C534.956360,316.138763 534.956482,318.413849 534.956421,320.688934 
	C534.955627,335.020111 534.994019,349.351410 534.938721,363.682373 
	C534.907471,371.789551 532.624084,373.979828 524.440369,373.998260 
	C515.441772,374.018494 506.443085,374.007202 497.444427,374.001740 
	C488.112671,373.996063 486.138306,372.019135 486.135803,362.477478 
	C486.122894,313.151642 486.130859,263.825806 486.131500,213.999969 
M534.954102,253.498917 
	C534.954102,259.401886 534.954102,265.304871 534.954102,271.477417 
	C546.091370,271.477417 556.395813,271.502045 566.699951,271.456024 
	C568.688843,271.447144 570.686829,271.243164 572.663025,270.991241 
	C588.390991,268.986542 598.559753,258.937958 599.256042,244.756866 
	C600.039856,228.791824 591.809387,216.982040 575.534424,214.854874 
	C562.375732,213.135010 548.813049,214.506149 534.954041,214.506149 
	C534.954041,226.952438 534.954041,239.725952 534.954102,253.498917 
z"/>
<path fill="#FEFFFF" opacity="1.000000" stroke="none" 
	d="
M320.003113,169.831207 
	C359.992126,169.831284 399.481781,169.823074 438.971466,169.837097 
	C449.252106,169.840759 450.913940,171.506485 450.938293,181.645706 
	C450.952301,187.477478 450.942017,193.309326 450.941193,199.141129 
	C450.939301,212.197830 449.991180,213.167404 437.192108,213.168213 
	C409.532684,213.169983 381.873230,213.168793 354.213806,213.168808 
	C352.412842,213.168808 350.611847,213.168808 348.479614,213.168808 
	C348.479614,225.350922 348.479614,237.069031 348.479614,249.482681 
	C350.610535,249.482681 352.551117,249.482666 354.491730,249.482697 
	C378.152222,249.483032 401.812714,249.462433 425.473175,249.493103 
	C436.251556,249.507065 437.911285,251.209198 437.926483,261.937500 
	C437.934509,267.602692 437.930237,273.267883 437.927765,278.933075 
	C437.922638,290.727905 436.630615,291.999481 424.631714,292.000488 
	C401.137848,292.002502 377.644012,292.001068 354.150146,292.001068 
	C352.351135,292.001068 350.552124,292.001068 348.133972,292.001068 
	C348.133972,294.192963 348.134125,295.967346 348.133942,297.741699 
	C348.131409,319.902557 348.153992,342.063507 348.113586,364.224274 
	C348.097992,372.787445 346.824249,373.991333 338.252686,373.999115 
	C328.921783,374.007538 319.590729,374.033356 310.260010,373.991089 
	C301.466095,373.951233 299.589417,372.171509 299.538818,363.472260 
	C299.455475,349.143158 299.507080,334.813232 299.506653,320.483673 
	C299.505341,274.828949 299.504608,229.174210 299.511597,183.519485 
	C299.511932,181.354706 299.473450,179.180176 299.654633,177.027161 
	C300.029663,172.570206 302.293304,169.970047 307.011475,169.949371 
	C311.175690,169.931107 315.339661,169.872177 320.003113,169.831207 
z"/>
<path fill="#FDDE5A" opacity="1.000000" stroke="none" 
	d="
M91.832535,239.948151 
	C91.869133,248.304123 91.905739,256.660095 91.887436,265.477478 
	C84.637711,262.595459 77.442894,259.252075 69.706154,255.656876 
	C55.399311,269.994293 40.586067,284.848694 25.755610,299.685913 
	C24.345667,301.096497 22.947353,302.565552 21.338079,303.721252 
	C16.421001,307.252533 10.183715,306.647675 5.835648,302.373474 
	C1.813577,298.419739 1.225632,292.142944 4.588387,287.296936 
	C5.716601,285.671112 7.167305,284.249481 8.578265,282.842468 
	C23.429955,268.032349 38.303478,253.244095 53.390945,238.230927 
	C46.452976,228.299942 41.904980,217.759964 39.512096,206.201859 
	C30.342365,161.910141 63.353054,117.613251 108.473854,113.880653 
	C150.575943,110.397774 185.410934,136.440750 193.471375,177.425629 
	C200.915939,215.278946 179.505005,251.968643 141.403717,266.072083 
	C140.987991,257.730133 140.942917,249.329529 141.299866,240.382004 
	C164.022552,226.859329 174.443649,205.053436 169.807770,181.024124 
	C165.060318,156.416580 143.184753,137.999695 117.784111,137.225815 
	C92.767418,136.463623 70.263283,153.717499 63.850758,178.576416 
	C57.591785,202.840073 69.230835,228.367706 91.832535,239.948151 
z"/>
<path fill="#FBDD5B" opacity="1.000000" stroke="none" 
	d="
M933.286865,347.892883 
	C933.744507,351.352661 932.572632,352.350647 929.436096,352.301849 
	C917.795044,352.120697 906.149475,352.229675 894.573303,352.229675 
	C893.090942,359.483398 897.678833,366.571106 905.041626,366.863678 
	C911.551575,367.122406 918.144165,365.624634 924.677490,364.734802 
	C926.254761,364.519958 927.741943,363.643707 929.915894,362.830109 
	C929.915894,366.733917 930.164612,370.181915 929.785156,373.559296 
	C929.646423,374.793335 928.239075,376.455566 927.030151,376.909424 
	C916.076904,381.021515 904.963440,381.363251 893.793335,377.697968 
	C893.163818,377.491364 892.564575,377.186066 891.963196,376.901398 
	C876.952271,369.796661 871.259460,347.125824 880.193970,330.042450 
	C887.198120,316.650146 906.706299,311.512939 920.766357,319.452454 
	C928.321899,323.718933 932.020630,330.549377 932.965027,338.969269 
	C933.279480,341.773590 933.191162,344.623077 933.286865,347.892883 
M896.872803,341.003723 
	C903.589600,341.003723 910.306458,341.003723 917.012756,341.003723 
	C916.942261,333.082397 913.334351,328.656158 906.950867,328.056549 
	C900.489197,327.449585 895.311890,331.414917 894.342041,337.992828 
	C894.209106,338.894379 895.391174,339.989838 896.872803,341.003723 
z"/>
<path fill="#FBDE5B" opacity="1.000000" stroke="none" 
	d="
M946.996948,328.061615 
	C944.673706,324.445374 942.529602,321.142761 939.877380,317.057617 
	C946.171997,317.057617 951.593140,316.886597 956.988586,317.183014 
	C958.269104,317.253387 959.845337,318.641876 960.631531,319.849670 
	C964.060608,325.118011 967.248718,330.543213 970.993530,336.680511 
	C974.613098,330.814819 977.694336,325.386444 981.262390,320.299530 
	C982.358459,318.736786 984.720276,317.365295 986.617126,317.196747 
	C991.498901,316.763062 996.444824,317.051727 1002.287537,317.051727 
	C995.293274,327.620209 988.812012,337.413422 982.194153,347.413147 
	C989.035339,357.699280 995.822144,367.903656 1003.195251,378.989502 
	C996.703247,378.989502 990.996704,379.136932 985.310791,378.860321 
	C984.223694,378.807434 982.953430,377.251770 982.219543,376.101196 
	C978.568970,370.378296 975.069458,364.559052 971.014038,357.955017 
	C967.195740,364.107208 963.570435,369.576416 960.359924,375.279144 
	C958.768677,378.105774 956.982422,379.313538 953.672485,379.087036 
	C949.057678,378.771240 944.405090,379.007507 938.756348,379.007507 
	C944.006409,371.092224 948.329834,363.422272 953.789734,356.671448 
	C959.086182,350.122742 959.831848,344.646210 953.871277,338.284149 
	C951.179993,335.411652 949.380188,331.704010 946.996948,328.061615 
z"/>
<path fill="#0DC0DF" opacity="1.000000" stroke="none" 
	d="
M782.837585,290.869080 
	C785.612610,291.196869 787.949280,291.347412 790.213257,291.835327 
	C801.076050,294.176270 805.964111,300.132996 805.735657,310.588318 
	C805.504761,321.157135 799.603516,328.179413 788.630676,329.109589 
	C777.709534,330.035461 766.686829,329.824951 755.706848,329.976776 
	C747.252930,330.093719 738.796143,330.000061 730.053101,330.000061 
	C730.053101,290.975555 730.053101,252.417252 730.053101,213.655258 
	C730.935791,213.484512 731.721069,213.194138 732.503479,213.201599 
	C749.814880,213.366867 767.149719,213.077377 784.429504,213.915955 
	C797.545288,214.552460 802.869507,220.449890 802.596680,231.575470 
	C802.349060,241.675339 795.186340,248.166153 783.236938,248.970779 
	C779.585510,249.216644 775.902832,249.010406 772.253601,249.274994 
	C766.061768,249.723969 763.985046,251.929520 763.923645,258.072357 
	C763.843811,266.066742 763.835815,274.063416 763.934204,282.057434 
	C764.007812,288.038055 765.994812,290.217529 771.879272,290.683624 
	C775.357239,290.959137 778.869080,290.807068 782.837585,290.869080 
z"/>
<path fill="#0EC0DE" opacity="1.000000" stroke="none" 
	d="
M91.894714,239.485779 
	C69.230835,228.367706 57.591785,202.840073 63.850758,178.576416 
	C70.263283,153.717499 92.767418,136.463623 117.784111,137.225815 
	C143.184753,137.999695 165.060318,156.416580 169.807770,181.024124 
	C174.443649,205.053436 164.022552,226.859329 141.367065,239.917236 
	C140.952667,221.045212 140.881226,202.090973 140.782272,183.136887 
	C140.771011,180.979889 140.704636,178.813797 140.490265,176.669266 
	C140.060883,172.374054 137.576294,169.953690 133.295151,169.913147 
	C121.987579,169.806061 110.674637,169.717209 99.371231,169.962418 
	C94.058289,170.077682 92.043549,172.852386 92.022942,179.150742 
	C91.957642,199.108154 91.972832,219.065826 91.894714,239.485779 
z"/>
<path fill="#0DC0DF" opacity="1.000000" stroke="none" 
	d="
M534.954102,252.999176 
	C534.954041,239.725952 534.954041,226.952438 534.954041,214.506149 
	C548.813049,214.506149 562.375732,213.135010 575.534424,214.854874 
	C591.809387,216.982040 600.039856,228.791824 599.256042,244.756866 
	C598.559753,258.937958 588.390991,268.986542 572.663025,270.991241 
	C570.686829,271.243164 568.688843,271.447144 566.699951,271.456024 
	C556.395813,271.502045 546.091370,271.477417 534.954102,271.477417 
	C534.954102,265.304871 534.954102,259.401886 534.954102,252.999176 
z"/>
<path fill="#10C1DD" opacity="1.000000" stroke="none" 
	d="
M896.418640,340.999603 
	C895.391174,339.989838 894.209106,338.894379 894.342041,337.992828 
	C895.311890,331.414917 900.489197,327.449585 906.950867,328.056549 
	C913.334351,328.656158 916.942261,333.082397 917.012756,341.003723 
	C910.306458,341.003723 903.589600,341.003723 896.418640,340.999603 
z"/>
</svg>