<svg version="1.1" id="Layer_1" xmlns="http://www.w3.org/2000/svg" xmlns:xlink="http://www.w3.org/1999/xlink" x="0px" y="0px"
	 width="100%" viewBox="0 0 1004 591" enable-background="new 0 0 1004 591" xml:space="preserve">
<path fill="#FFFFFF" opacity="1.000000" stroke="none" 
	d="
M593.000000,592.000000 
	C395.333344,592.000000 198.166672,592.000000 1.000000,592.000000 
	C1.000000,395.000000 1.000000,198.000000 1.000000,1.000000 
	C335.666656,1.000000 670.333313,1.000000 1005.000000,1.000000 
	C1005.000000,198.000000 1005.000000,395.000000 1005.000000,592.000000 
	C867.833313,592.000000 730.666687,592.000000 593.000000,592.000000 
M91.970444,266.876587 
	C91.984901,282.206268 91.853027,297.537842 92.047867,312.865234 
	C92.345566,336.284332 102.371277,354.734283 122.939056,365.783600 
	C156.749100,383.946838 191.420013,383.738037 225.147476,365.583405 
	C244.682205,355.068420 255.627426,337.636627 255.864853,315.152069 
	C256.343384,269.834015 256.060120,224.507660 256.027557,179.184769 
	C256.022461,172.088135 253.749603,169.904251 246.735077,169.857712 
	C237.570862,169.796906 228.405960,169.839859 219.241348,169.842957 
	C209.030823,169.846420 207.313171,171.528275 207.310181,181.692734 
	C207.298553,221.183853 207.307968,260.674988 207.297913,300.166107 
	C207.297241,302.831116 207.288757,305.501221 207.133636,308.160217 
	C206.376480,321.140106 198.125214,331.599335 185.275940,333.799286 
	C177.907166,335.060913 169.992020,335.022064 162.600723,333.836426 
	C150.251572,331.855530 141.505051,321.558746 141.093231,309.084717 
	C140.620895,294.777161 141.013412,280.441071 141.774673,266.012238 
	C183.578293,251.467377 205.060745,206.628632 190.123367,165.037842 
	C175.457214,124.202133 130.658096,102.928596 89.297653,118.167679 
	C68.835991,125.706696 53.744160,139.607529 44.909817,159.626389 
	C32.733772,187.217651 36.919106,213.415070 53.352955,238.603622 
	C48.620029,243.155731 44.002056,247.478271 39.516956,251.934540 
	C28.527222,262.853607 17.540079,273.776520 6.668381,284.812653 
	C0.430409,291.144989 1.074005,299.584656 7.899358,304.104919 
	C12.935468,307.440216 18.926641,306.491211 24.113564,301.330322 
	C38.283913,287.231140 52.499851,273.174774 66.456085,258.865723 
	C69.544609,255.699127 71.628204,255.709244 75.286316,257.942200 
	C80.490082,261.118652 86.287865,263.321960 91.970444,266.876587 
M712.500000,374.002228 
	C736.985107,373.975433 761.473022,374.162537 785.954041,373.832977 
	C798.492920,373.664215 810.674622,371.242279 822.292236,366.062866 
	C860.042725,349.232605 861.755859,305.050201 845.060852,283.694427 
	C840.307251,277.613739 833.794739,272.908051 828.150696,267.629730 
	C830.088501,266.120514 832.759033,264.396576 835.007507,262.233887 
	C855.297852,242.717331 853.407288,204.812073 831.380554,186.324005 
	C818.004822,175.097137 802.136597,170.381668 785.216492,169.988678 
	C755.085022,169.288849 724.931458,169.537750 694.787048,169.411133 
	C692.794250,169.402756 690.787842,169.460495 688.809753,169.682968 
	C682.877991,170.350082 681.066650,172.343369 681.015198,178.407349 
	C680.945984,186.568558 680.995544,194.730789 680.995544,202.892578 
	C680.995667,256.527191 680.989136,310.161774 681.004028,363.796387 
	C681.006226,371.766083 683.123474,373.917328 691.012390,373.988190 
	C697.841064,374.049530 704.670776,374.001770 712.500000,374.002228 
M589.361755,172.088867 
	C581.926025,171.352753 574.497009,170.073044 567.053345,169.981400 
	C543.735962,169.694366 520.413025,169.829361 497.092285,169.855499 
	C487.940308,169.865753 486.126923,171.774261 486.124725,181.096451 
	C486.116608,215.744598 486.120697,250.392746 486.120514,285.040894 
	C486.120361,311.027008 486.105499,337.013092 486.129272,362.999207 
	C486.137390,371.863495 488.264862,373.990723 496.937103,374.000671 
	C505.932281,374.010956 514.927490,374.009003 523.922668,374.001221 
	C532.770630,373.993591 534.929138,371.917480 534.948669,363.221191 
	C534.981506,348.562469 534.958069,333.903564 534.958252,319.244751 
	C534.958313,317.470734 534.958313,315.696716 534.958313,313.033569 
	C548.099854,313.033569 560.587341,313.431610 573.039551,312.938019 
	C590.653870,312.239868 607.180298,307.696136 621.544861,296.895203 
	C651.426270,274.426819 651.232605,228.882309 636.958435,204.191101 
	C626.507751,186.113602 610.005920,176.701111 589.361755,172.088867 
M299.417206,267.499939 
	C299.417145,286.988831 299.415466,306.477722 299.417633,325.966614 
	C299.419006,338.626190 299.308228,351.287262 299.473175,363.944763 
	C299.577911,371.983215 301.707397,373.937714 309.705200,373.986450 
	C319.366089,374.045349 329.027618,374.010651 338.688873,373.997986 
	C346.680664,373.987488 348.082153,372.688629 348.098999,364.810028 
	C348.146790,342.489288 348.121521,320.168396 348.124969,297.847565 
	C348.125244,296.062866 348.125031,294.278168 348.125031,292.001099 
	C350.415161,292.001099 352.206757,292.001160 353.998383,292.001099 
	C378.651245,292.000305 403.304199,292.026886 427.956970,291.980499 
	C434.599182,291.967987 437.563538,289.975708 437.755981,284.622711 
	C438.084869,275.474487 438.028046,266.300385 437.760376,257.148071 
	C437.637360,252.942108 435.539246,249.848511 430.677246,249.746857 
	C428.518311,249.701706 426.362366,249.418747 424.204834,249.416458 
	C400.718018,249.391510 377.231140,249.406784 353.744293,249.388809 
	C351.990356,249.387466 350.236542,249.214966 348.526428,249.124359 
	C348.526428,236.867371 348.526428,225.155167 348.526428,213.155884 
	C350.243378,213.155884 351.559509,213.155991 352.875610,213.155869 
	C382.359100,213.153107 411.842651,213.186050 441.325989,213.122086 
	C448.571747,213.106369 450.847351,210.742706 450.923523,203.519089 
	C451.000793,196.190659 450.954865,188.860779 450.940765,181.531570 
	C450.921692,171.611893 449.213654,169.855011 439.373322,169.851318 
	C396.563934,169.835236 353.754547,169.834488 310.945160,169.853104 
	C301.066620,169.857407 299.432068,171.526031 299.425140,181.547440 
	C299.405579,209.864914 299.417908,238.182419 299.417206,267.499939 
M876.334106,343.997620 
	C875.783447,356.113037 877.265991,367.736267 888.553345,374.811127 
	C901.107361,382.680054 914.584534,381.355804 927.933350,376.620880 
	C928.840515,376.299072 929.765747,374.687134 929.843018,373.614716 
	C930.087585,370.221924 929.933289,366.800354 929.933289,364.346832 
	C921.693481,365.322845 914.042053,366.834564 906.366150,366.970795 
	C898.442993,367.111450 893.307007,360.326294 894.500977,352.088928 
	C907.141296,352.088928 919.882263,352.088928 933.166260,352.088928 
	C933.166260,349.054565 933.084412,346.599304 933.179138,344.150879 
	C933.999695,322.944550 917.323181,312.044373 896.747620,317.052551 
	C883.382690,320.305603 878.027893,330.369904 876.334106,343.997620 
M958.715149,346.053925 
	C957.704163,348.541199 957.039734,351.249237 955.620605,353.476471 
	C950.296936,361.831970 944.726807,370.030457 938.772827,379.005737 
	C944.606995,379.005737 949.435242,379.338867 954.179138,378.851318 
	C956.244690,378.639038 958.794800,377.207733 959.986572,375.524261 
	C963.782227,370.162476 967.043396,364.422302 970.973755,358.081726 
	C974.941101,364.476288 978.305115,370.163483 981.979553,375.642578 
	C982.951111,377.091339 984.815979,378.729797 986.379700,378.848785 
	C991.627930,379.248169 996.925415,379.000488 1003.224915,379.000488 
	C997.409729,370.264160 992.031067,362.327698 986.805054,354.291992 
	C981.458191,346.070587 981.492676,348.781586 986.795166,340.585754 
	C991.728149,332.961212 996.770081,325.407196 1002.280212,317.038116 
	C996.447388,317.038116 991.636536,316.706329 986.909546,317.191345 
	C984.840027,317.403625 982.289307,318.818115 981.088745,320.496338 
	C977.558350,325.431519 974.594482,330.772003 971.006958,336.607635 
	C967.362366,330.642517 964.279602,325.360504 960.921753,320.259521 
	C960.029480,318.904083 958.347168,317.289154 956.933899,317.194672 
	C951.559021,316.835480 946.145691,317.049896 939.810608,317.049896 
	C946.356628,327.085541 952.334900,336.250763 958.715149,346.053925 
z"/>
<path fill="#0DC0DF" opacity="1.000000" stroke="none" 
	d="
M712.000000,374.002228 
	C704.670776,374.001770 697.841064,374.049530 691.012390,373.988190 
	C683.123474,373.917328 681.006226,371.766083 681.004028,363.796387 
	C680.989136,310.161774 680.995667,256.527191 680.995544,202.892578 
	C680.995544,194.730789 680.945984,186.568558 681.015198,178.407349 
	C681.066650,172.343369 682.877991,170.350082 688.809753,169.682968 
	C690.787842,169.460495 692.794250,169.402756 694.787048,169.411133 
	C724.931458,169.537750 755.085022,169.288849 785.216492,169.988678 
	C802.136597,170.381668 818.004822,175.097137 831.380554,186.324005 
	C853.407288,204.812073 855.297852,242.717331 835.007507,262.233887 
	C832.759033,264.396576 830.088501,266.120514 828.150696,267.629730 
	C833.794739,272.908051 840.307251,277.613739 845.060852,283.694427 
	C861.755859,305.050201 860.042725,349.232605 822.292236,366.062866 
	C810.674622,371.242279 798.492920,373.664215 785.954041,373.832977 
	C761.473022,374.162537 736.985107,373.975433 712.000000,374.002228 
M781.419983,290.849976 
	C778.587769,290.842773 775.749878,290.947357 772.924377,290.806061 
	C766.140381,290.466766 763.988281,288.282257 763.927002,281.608521 
	C763.855164,273.778564 763.851746,265.946960 763.926392,258.117096 
	C763.985352,251.934616 766.052551,249.692062 772.208740,249.253082 
	C776.025269,248.980957 779.879761,249.230637 783.694153,248.941864 
	C795.272583,248.065277 802.370972,241.504700 802.636963,231.633774 
	C802.936340,220.526184 797.499207,214.614914 784.484131,213.927368 
	C769.201843,213.120071 753.863953,213.359604 738.550049,213.159149 
	C735.773010,213.122803 732.995117,213.153961 730.039001,213.153961 
	C730.039001,252.359970 730.039001,290.930115 730.039001,329.398834 
	C730.578674,329.646790 730.870789,329.899994 731.160156,329.896912 
	C750.302429,329.692139 769.469238,329.976410 788.577026,329.047272 
	C799.600586,328.511200 805.513367,321.179443 805.763428,310.645996 
	C806.011047,300.212158 801.109863,294.197479 790.268555,291.863159 
	C787.683777,291.306641 785.006165,291.180878 781.419983,290.849976 
z"/>
<path fill="#0EC0DF" opacity="1.000000" stroke="none" 
	d="
M141.030228,266.117371 
	C141.013412,280.441071 140.620895,294.777161 141.093231,309.084717 
	C141.505051,321.558746 150.251572,331.855530 162.600723,333.836426 
	C169.992020,335.022064 177.907166,335.060913 185.275940,333.799286 
	C198.125214,331.599335 206.376480,321.140106 207.133636,308.160217 
	C207.288757,305.501221 207.297241,302.831116 207.297913,300.166107 
	C207.307968,260.674988 207.298553,221.183853 207.310181,181.692734 
	C207.313171,171.528275 209.030823,169.846420 219.241348,169.842957 
	C228.405960,169.839859 237.570862,169.796906 246.735077,169.857712 
	C253.749603,169.904251 256.022461,172.088135 256.027557,179.184769 
	C256.060120,224.507660 256.343384,269.834015 255.864853,315.152069 
	C255.627426,337.636627 244.682205,355.068420 225.147476,365.583405 
	C191.420013,383.738037 156.749100,383.946838 122.939056,365.783600 
	C102.371277,354.734283 92.345566,336.284332 92.047867,312.865234 
	C91.853027,297.537842 91.984901,282.206268 91.969711,265.949066 
	C91.923615,256.665070 91.878242,248.308609 91.901443,239.491760 
	C91.980385,219.067230 91.956734,199.102936 92.019562,179.138931 
	C92.041519,172.162567 94.344933,169.908081 101.354416,169.859665 
	C110.504272,169.796463 119.654900,169.841965 128.805191,169.844070 
	C139.144714,169.846436 140.781036,171.528793 140.817169,182.119690 
	C140.882996,201.412918 140.959320,220.706100 140.943619,240.461121 
	C140.914062,249.321060 140.972153,257.719208 141.030228,266.117371 
z"/>
<path fill="#0EC0DF" opacity="1.000000" stroke="none" 
	d="
M589.777466,172.156540 
	C610.005920,176.701111 626.507751,186.113602 636.958435,204.191101 
	C651.232605,228.882309 651.426270,274.426819 621.544861,296.895203 
	C607.180298,307.696136 590.653870,312.239868 573.039551,312.938019 
	C560.587341,313.431610 548.099854,313.033569 534.958313,313.033569 
	C534.958313,315.696716 534.958313,317.470734 534.958252,319.244751 
	C534.958069,333.903564 534.981506,348.562469 534.948669,363.221191 
	C534.929138,371.917480 532.770630,373.993591 523.922668,374.001221 
	C514.927490,374.009003 505.932281,374.010956 496.937103,374.000671 
	C488.264862,373.990723 486.137390,371.863495 486.129272,362.999207 
	C486.105499,337.013092 486.120361,311.027008 486.120514,285.040894 
	C486.120697,250.392746 486.116608,215.744598 486.124725,181.096451 
	C486.126923,171.774261 487.940308,169.865753 497.092285,169.855499 
	C520.413025,169.829361 543.735962,169.694366 567.053345,169.981400 
	C574.497009,170.073044 581.926025,171.352753 589.777466,172.156540 
M534.956116,253.498947 
	C534.956116,259.290710 534.956116,265.082458 534.956116,271.398163 
	C545.758484,271.398163 556.043640,271.439209 566.328003,271.370056 
	C568.984680,271.352203 571.682617,271.224762 574.287415,270.745056 
	C589.933289,267.863739 599.131592,257.780487 599.273010,243.530533 
	C599.429382,227.782913 590.932129,216.523621 574.758972,214.610245 
	C561.836548,213.081467 548.588928,214.301605 534.955994,214.301605 
	C534.955994,226.916840 534.955994,239.708176 534.956116,253.498947 
z"/>
<path fill="#0DC0DF" opacity="1.000000" stroke="none" 
	d="
M299.417419,266.999939 
	C299.417908,238.182419 299.405579,209.864914 299.425140,181.547440 
	C299.432068,171.526031 301.066620,169.857407 310.945160,169.853104 
	C353.754547,169.834488 396.563934,169.835236 439.373322,169.851318 
	C449.213654,169.855011 450.921692,171.611893 450.940765,181.531570 
	C450.954865,188.860779 451.000793,196.190659 450.923523,203.519089 
	C450.847351,210.742706 448.571747,213.106369 441.325989,213.122086 
	C411.842651,213.186050 382.359100,213.153107 352.875610,213.155869 
	C351.559509,213.155991 350.243378,213.155884 348.526428,213.155884 
	C348.526428,225.155167 348.526428,236.867371 348.526428,249.124359 
	C350.236542,249.214966 351.990356,249.387466 353.744293,249.388809 
	C377.231140,249.406784 400.718018,249.391510 424.204834,249.416458 
	C426.362366,249.418747 428.518311,249.701706 430.677246,249.746857 
	C435.539246,249.848511 437.637360,252.942108 437.760376,257.148071 
	C438.028046,266.300385 438.084869,275.474487 437.755981,284.622711 
	C437.563538,289.975708 434.599182,291.967987 427.956970,291.980499 
	C403.304199,292.026886 378.651245,292.000305 353.998383,292.001099 
	C352.206757,292.001160 350.415161,292.001099 348.125031,292.001099 
	C348.125031,294.278168 348.125244,296.062866 348.124969,297.847565 
	C348.121521,320.168396 348.146790,342.489288 348.098999,364.810028 
	C348.082153,372.688629 346.680664,373.987488 338.688873,373.997986 
	C329.027618,374.010651 319.366089,374.045349 309.705200,373.986450 
	C301.707397,373.937714 299.577911,371.983215 299.473175,363.944763 
	C299.308228,351.287262 299.419006,338.626190 299.417633,325.966614 
	C299.415466,306.477722 299.417145,286.988831 299.417419,266.999939 
z"/>
<path fill="#FFDE5B" opacity="1.000000" stroke="none" 
	d="
M91.832863,239.952133 
	C91.878242,248.308609 91.923615,256.665070 91.900421,265.481262 
	C86.287865,263.321960 80.490082,261.118652 75.286316,257.942200 
	C71.628204,255.709244 69.544609,255.699127 66.456085,258.865723 
	C52.499851,273.174774 38.283913,287.231140 24.113564,301.330322 
	C18.926641,306.491211 12.935468,307.440216 7.899358,304.104919 
	C1.074005,299.584656 0.430409,291.144989 6.668381,284.812653 
	C17.540079,273.776520 28.527222,262.853607 39.516956,251.934540 
	C44.002056,247.478271 48.620029,243.155731 53.352955,238.603622 
	C36.919106,213.415070 32.733772,187.217651 44.909817,159.626389 
	C53.744160,139.607529 68.835991,125.706696 89.297653,118.167679 
	C130.658096,102.928596 175.457214,124.202133 190.123367,165.037842 
	C205.060745,206.628632 183.578293,251.467377 141.402451,266.064819 
	C140.972153,257.719208 140.914062,249.321060 141.271286,240.356155 
	C147.087311,235.449326 153.227768,231.763733 157.752930,226.649017 
	C172.552521,209.921295 175.048874,185.733292 164.716537,166.610809 
	C153.436707,145.734741 132.249847,134.787537 109.108070,137.878067 
	C86.229019,140.933502 66.745995,159.438705 63.082355,181.593811 
	C59.034573,206.071930 70.253647,228.844635 91.832863,239.952133 
z"/>
<path fill="#FFDF5C" opacity="1.000000" stroke="none" 
	d="
M876.438721,343.567139 
	C878.027893,330.369904 883.382690,320.305603 896.747620,317.052551 
	C917.323181,312.044373 933.999695,322.944550 933.179138,344.150879 
	C933.084412,346.599304 933.166260,349.054565 933.166260,352.088928 
	C919.882263,352.088928 907.141296,352.088928 894.500977,352.088928 
	C893.307007,360.326294 898.442993,367.111450 906.366150,366.970795 
	C914.042053,366.834564 921.693481,365.322845 929.933289,364.346832 
	C929.933289,366.800354 930.087585,370.221924 929.843018,373.614716 
	C929.765747,374.687134 928.840515,376.299072 927.933350,376.620880 
	C914.584534,381.355804 901.107361,382.680054 888.553345,374.811127 
	C877.265991,367.736267 875.783447,356.113037 876.438721,343.567139 
M894.346863,340.497040 
	C901.846802,340.497040 909.346741,340.497040 916.826599,340.497040 
	C917.050110,334.284485 914.886108,330.631134 910.108765,328.846497 
	C902.122192,325.862946 895.802856,330.140106 894.346863,340.497040 
z"/>
<path fill="#FFDF5C" opacity="1.000000" stroke="none" 
	d="
M958.514160,345.734924 
	C952.334900,336.250763 946.356628,327.085541 939.810608,317.049896 
	C946.145691,317.049896 951.559021,316.835480 956.933899,317.194672 
	C958.347168,317.289154 960.029480,318.904083 960.921753,320.259521 
	C964.279602,325.360504 967.362366,330.642517 971.006958,336.607635 
	C974.594482,330.772003 977.558350,325.431519 981.088745,320.496338 
	C982.289307,318.818115 984.840027,317.403625 986.909546,317.191345 
	C991.636536,316.706329 996.447388,317.038116 1002.280212,317.038116 
	C996.770081,325.407196 991.728149,332.961212 986.795166,340.585754 
	C981.492676,348.781586 981.458191,346.070587 986.805054,354.291992 
	C992.031067,362.327698 997.409729,370.264160 1003.224915,379.000488 
	C996.925415,379.000488 991.627930,379.248169 986.379700,378.848785 
	C984.815979,378.729797 982.951111,377.091339 981.979553,375.642578 
	C978.305115,370.163483 974.941101,364.476288 970.973755,358.081726 
	C967.043396,364.422302 963.782227,370.162476 959.986572,375.524261 
	C958.794800,377.207733 956.244690,378.639038 954.179138,378.851318 
	C949.435242,379.338867 944.606995,379.005737 938.772827,379.005737 
	C944.726807,370.030457 950.296936,361.831970 955.620605,353.476471 
	C957.039734,351.249237 957.704163,348.541199 958.514160,345.734924 
z"/>
<path fill="#FEFFFF" opacity="1.000000" stroke="none" 
	d="
M781.895630,290.853485 
	C785.006165,291.180878 787.683777,291.306641 790.268555,291.863159 
	C801.109863,294.197479 806.011047,300.212158 805.763428,310.645996 
	C805.513367,321.179443 799.600586,328.511200 788.577026,329.047272 
	C769.469238,329.976410 750.302429,329.692139 731.160156,329.896912 
	C730.870789,329.899994 730.578674,329.646790 730.039001,329.398834 
	C730.039001,290.930115 730.039001,252.359970 730.039001,213.153961 
	C732.995117,213.153961 735.773010,213.122803 738.550049,213.159149 
	C753.863953,213.359604 769.201843,213.120071 784.484131,213.927368 
	C797.499207,214.614914 802.936340,220.526184 802.636963,231.633774 
	C802.370972,241.504700 795.272583,248.065277 783.694153,248.941864 
	C779.879761,249.230637 776.025269,248.980957 772.208740,249.253082 
	C766.052551,249.692062 763.985352,251.934616 763.926392,258.117096 
	C763.851746,265.946960 763.855164,273.778564 763.927002,281.608521 
	C763.988281,288.282257 766.140381,290.466766 772.924377,290.806061 
	C775.749878,290.947357 778.587769,290.842773 781.895630,290.853485 
z"/>
<path fill="#FFFFFE" opacity="1.000000" stroke="none" 
	d="
M91.901443,239.491760 
	C70.253647,228.844635 59.034573,206.071930 63.082355,181.593811 
	C66.745995,159.438705 86.229019,140.933502 109.108070,137.878067 
	C132.249847,134.787537 153.436707,145.734741 164.716537,166.610809 
	C175.048874,185.733292 172.552521,209.921295 157.752930,226.649017 
	C153.227768,231.763733 147.087311,235.449326 141.358932,239.894348 
	C140.959320,220.706100 140.882996,201.412918 140.817169,182.119690 
	C140.781036,171.528793 139.144714,169.846436 128.805191,169.844070 
	C119.654900,169.841965 110.504272,169.796463 101.354416,169.859665 
	C94.344933,169.908081 92.041519,172.162567 92.019562,179.138931 
	C91.956734,199.102936 91.980385,219.067230 91.901443,239.491760 
z"/>
<path fill="#FEFFFF" opacity="1.000000" stroke="none" 
	d="
M534.956055,252.999222 
	C534.955994,239.708176 534.955994,226.916840 534.955994,214.301605 
	C548.588928,214.301605 561.836548,213.081467 574.758972,214.610245 
	C590.932129,216.523621 599.429382,227.782913 599.273010,243.530533 
	C599.131592,257.780487 589.933289,267.863739 574.287415,270.745056 
	C571.682617,271.224762 568.984680,271.352203 566.328003,271.370056 
	C556.043640,271.439209 545.758484,271.398163 534.956116,271.398163 
	C534.956116,265.082458 534.956116,259.290710 534.956055,252.999222 
z"/>
<path fill="#FFFEFC" opacity="1.000000" stroke="none" 
	d="
M894.219971,340.091736 
	C895.802856,330.140106 902.122192,325.862946 910.108765,328.846497 
	C914.886108,330.631134 917.050110,334.284485 916.826599,340.497040 
	C909.346741,340.497040 901.846802,340.497040 894.219971,340.091736 
z"/>
</svg>