<?xml version="1.0" encoding="UTF-8"?>
<svg version="1.1" xmlns="http://www.w3.org/2000/svg" width="1004" height="591">
<path d="M0 0 C331.32 0 662.64 0 1004 0 C1004 195.03 1004 390.06 1004 591 C672.68 591 341.36 591 0 591 C0 395.97 0 200.94 0 0 Z " fill="#FEFEFE" transform="translate(0,0)"/>
<path d="M0 0 C0.72739883 -0.00619858 1.45479767 -0.01239716 2.20423889 -0.01878357 C3.44584023 -0.04253807 3.44584023 -0.04253807 4.71252441 -0.06677246 C5.60319107 -0.06181259 6.49385773 -0.05685272 7.41151428 -0.05174255 C8.78926781 -0.06104042 8.78926781 -0.06104042 10.19485474 -0.07052612 C12.13742513 -0.07763006 14.08005632 -0.07444027 16.02259827 -0.06175232 C18.99517491 -0.04790152 21.96459508 -0.08192909 24.93690491 -0.12010193 C26.82427547 -0.12105326 28.71164997 -0.11919355 30.59901428 -0.11424255 C31.48765671 -0.12750076 32.37629913 -0.14075897 33.29187012 -0.15441895 C34.1227565 -0.14188583 34.95364288 -0.12935272 35.80970764 -0.11643982 C36.53790207 -0.11547806 37.2660965 -0.1145163 38.01635742 -0.11352539 C41.19062295 0.85666205 42.24704165 2.81078355 44.07167053 5.5146637 C44.57109928 8.2443428 44.57109928 8.2443428 44.57046509 11.25642395 C44.58004242 12.40302994 44.58961975 13.54963593 44.5994873 14.73098755 C44.5897438 15.97992294 44.58000031 17.22885834 44.56996155 18.51564026 C44.5737869 19.85151779 44.5794078 21.18739121 44.58668518 22.52325439 C44.5986233 25.39564536 44.59815614 28.26767071 44.5880909 31.14006805 C44.57250203 35.68814181 44.58622885 40.2358418 44.60412598 44.78388977 C44.63493463 53.62353584 44.6364485 62.46306743 44.63447571 71.30275726 C44.63308278 82.53979076 44.64354035 93.77673537 44.68305343 105.01370406 C44.69793353 109.52811011 44.69775653 114.04218356 44.6855756 118.55659437 C44.68084112 121.37483276 44.68842104 124.19294577 44.69911957 127.01116371 C44.70264532 128.92619239 44.69129553 130.84123072 44.67938232 132.75622559 C44.73779834 142.76569228 46.12464874 150.36629518 53.10292053 157.7881012 C62.15083889 165.72298198 73.7161379 165.2140236 85.07167053 164.5146637 C92.15544834 163.46980647 98.10101143 160.71263404 103.07167053 155.5146637 C108.71436809 147.04452595 109.93051233 139.56793238 109.78114319 129.56373596 C109.78276939 128.21048422 109.78709674 126.8572335 109.79388428 125.5039978 C109.80282839 122.61623477 109.79336027 119.72936407 109.76898575 116.84169197 C109.73083716 112.27309687 109.73679967 107.70517551 109.7485199 103.13647461 C109.76528622 94.27281146 109.73734066 85.4095641 109.70510101 76.5459671 C109.66648826 65.23851009 109.65050579 53.93111802 109.67030561 42.62360996 C109.67682744 38.08368147 109.66259123 33.54443622 109.63185525 29.00461304 C109.61649074 26.18438852 109.61743404 23.36433509 109.62259865 20.54408073 C109.62103286 18.61636956 109.59940851 16.68870729 109.57717896 14.76112366 C109.58242081 13.610439 109.58766266 12.45975433 109.59306335 11.27420044 C109.58895761 10.27673577 109.58485188 9.27927111 109.58062172 8.25158024 C110.20919059 4.74817996 111.62949691 3.05418625 114.07167053 0.5146637 C116.08229065 -0.11352539 116.08229065 -0.11352539 118.22596741 -0.11643982 C119.03360535 -0.12897293 119.84124329 -0.14150604 120.6733551 -0.15441895 C121.96880249 -0.13453163 121.96880249 -0.13453163 123.29042053 -0.11424255 C124.18531189 -0.11665451 125.08020325 -0.11906647 126.00221252 -0.12155151 C127.89178403 -0.12057324 129.78138425 -0.10718423 131.67079163 -0.08226013 C134.56191941 -0.04795202 137.44999039 -0.06160065 140.34120178 -0.08103943 C142.17845437 -0.07414082 144.01569907 -0.0644683 145.85292053 -0.05174255 C146.71655212 -0.05670242 147.58018372 -0.06166229 148.46998596 -0.06677246 C149.2776239 -0.05093613 150.08526184 -0.03509979 150.91737366 -0.01878357 C151.97849365 -0.0094857 151.97849365 -0.0094857 153.06105042 0 C156.01274372 0.75555266 157.16199495 2.16986989 159.07167053 4.5146637 C159.5750351 7.26070881 159.5750351 7.26070881 159.5796051 10.47543335 C159.5908844 11.69613525 159.6021637 12.91683716 159.61378479 14.17453003 C159.60600733 15.52464532 159.59781464 16.87475826 159.58924866 18.22486877 C159.59467029 19.64938574 159.60179319 21.07389709 159.61048889 22.49839783 C159.62873878 26.36901894 159.62164329 30.23921389 159.60897255 34.10984254 C159.59883177 38.17209649 159.60824322 42.2343144 159.61451721 46.29656982 C159.62179962 53.13032043 159.61219998 59.96389831 159.59315491 66.79762268 C159.57148066 74.66486556 159.57836581 82.53169222 159.60046053 90.39892465 C159.61871264 97.17204334 159.62112244 103.94503782 159.61070585 110.71817321 C159.60451208 114.75457563 159.6035184 118.79078378 159.61685181 122.82717323 C159.62854979 126.63504587 159.6201354 130.44239297 159.59727478 134.25020981 C159.58959891 136.28812723 159.6012305 138.32608994 159.61378479 140.36398315 C159.45986219 157.44554384 154.5380497 172.56951352 142.59901428 185.10450745 C122.22348267 204.53526943 96.53216143 209.29105322 69.24208069 208.64649963 C46.14752279 207.68615301 24.65184761 199.62177495 8.54823303 182.6631012 C-2.36342699 169.56402214 -5.39617757 153.30955902 -5.31651306 136.72169495 C-5.32058852 135.27815354 -5.32593581 133.83461526 -5.33244324 132.39108276 C-5.34599726 128.50933778 -5.34087075 124.62783476 -5.33130598 120.74608612 C-5.32365873 116.67072952 -5.33076787 112.59539229 -5.33546448 108.52003479 C-5.34090242 101.68796601 -5.33377699 94.85599495 -5.31944275 88.02394104 C-5.30306758 80.12797361 -5.30844773 72.23223802 -5.32492197 64.33627605 C-5.33853057 57.5411032 -5.34046115 50.74600013 -5.33260596 43.95081806 C-5.3279327 39.89870713 -5.32729607 35.84670533 -5.33721542 31.79460144 C-5.34587559 27.99248544 -5.33988094 24.19066959 -5.32253265 20.38858604 C-5.31856494 18.99378648 -5.31970677 17.59896166 -5.32632065 16.20417213 C-5.33451273 14.30133082 -5.32242024 12.39843431 -5.3092804 10.49562073 C-5.30814932 9.43086517 -5.30701824 8.36610962 -5.30585289 7.26908875 C-4.81431295 3.68279494 -3.68051075 0.98231412 0 0 Z " fill="#0DC1E0" transform="translate(403.92832946777344,191.48533630371094)"/>
<path d="M0 0 C20.30088573 -0.73083189 40.69347674 6.39465175 56.015625 19.8359375 C67.21240992 30.78311256 75.48755627 44.03882863 79.46875 59.234375 C79.7325647 60.21180664 79.7325647 60.21180664 80.00170898 61.20898438 C81.49769511 67.20623243 81.8186127 72.94292764 81.78125 79.109375 C81.77561035 80.08463135 81.7699707 81.0598877 81.76416016 82.06469727 C81.64849313 88.90336677 80.99763163 94.83611434 78.46875 101.234375 C77.83066406 103.01521484 77.83066406 103.01521484 77.1796875 104.83203125 C69.70484688 125.18106473 56.07705264 140.79415731 36.46875 150.234375 C34.14256856 150.9255832 31.80991742 151.595764 29.46875 152.234375 C29.46288376 151.10320251 29.45701752 149.97203003 29.45097351 148.80657959 C29.39379328 138.15319633 29.32105628 127.50001812 29.23303509 116.84684372 C29.1882824 111.36975318 29.14903703 105.89273788 29.12231445 100.41552734 C29.09633043 95.13101138 29.05596271 89.84678415 29.00556374 84.56244659 C28.98886184 82.54504229 28.97736831 80.52758802 28.97113609 78.51012421 C28.96153117 75.68710463 28.93351518 72.86482935 28.90112305 70.04199219 C28.90255814 69.20545609 28.90399323 68.36891998 28.9054718 67.5070343 C28.85203381 64.22021179 28.69144099 61.67722744 27.20199585 58.71525574 C25.0774991 56.90009125 24.0764149 56.73329404 21.30444336 56.73266602 C20.47025375 56.72328506 19.63606415 56.71390411 18.77659607 56.70423889 C17.43118492 56.72108986 17.43118492 56.72108986 16.05859375 56.73828125 C15.13534805 56.73682602 14.21210236 56.73537079 13.26087952 56.73387146 C11.30987389 56.73553117 9.35885527 56.74710052 7.40795898 56.76782227 C4.41398839 56.7968001 1.42178507 56.78842856 -1.57226562 56.77539062 C-3.46615448 56.78162714 -5.36003772 56.7900174 -7.25390625 56.80078125 C-8.15287125 56.79784561 -9.05183624 56.79490997 -9.9780426 56.79188538 C-10.80908005 56.80456955 -11.64011749 56.81725372 -12.49633789 56.83032227 C-13.59529137 56.83842674 -13.59529137 56.83842674 -14.71644592 56.84669495 C-16.94735186 57.10256646 -16.94735186 57.10256646 -18.53125 60.234375 C-18.74512305 63.22305457 -18.84257582 66.1215769 -18.85009766 69.11206055 C-18.86014328 70.01958069 -18.8701889 70.92710083 -18.88053894 71.86212158 C-18.91145702 74.86510579 -18.92843006 77.86800051 -18.9453125 80.87109375 C-18.96401721 82.95189692 -18.98359009 85.03269245 -19.0039978 87.11347961 C-19.05539865 92.59281924 -19.09498182 98.07218349 -19.13214111 103.55163574 C-19.17213093 109.14190804 -19.22324615 114.73207725 -19.2734375 120.32226562 C-19.37029095 131.29289642 -19.45466558 142.26358531 -19.53125 153.234375 C-26.09141439 152.21451693 -26.09141439 152.21451693 -29.2578125 150.38671875 C-29.8971875 150.02900391 -30.5365625 149.67128906 -31.1953125 149.30273438 C-31.84242188 148.92955078 -32.48953125 148.55636719 -33.15625 148.171875 C-38.46241942 145.06369213 -38.46241942 145.06369213 -44.53125 144.234375 C-46.84167362 145.98218256 -46.84167362 145.98218256 -49.11279297 148.40942383 C-50.01407928 149.32069534 -50.9153656 150.23196686 -51.84396362 151.17085266 C-52.32108669 151.66282953 -52.79820976 152.1548064 -53.28979111 152.66169167 C-54.78653348 154.20490887 -56.29505925 155.73567737 -57.80715942 157.26383972 C-61.01821044 160.5137872 -64.21252678 163.77991335 -67.40625 167.046875 C-71.10157643 170.82269782 -74.80361148 174.59167097 -78.51736832 178.34937096 C-79.99847466 179.85355446 -81.46974212 181.36690299 -82.94064331 182.88105774 C-84.30202927 184.26214973 -84.30202927 184.26214973 -85.69091797 185.67114258 C-86.48271454 186.4816658 -87.27451111 187.29218903 -88.09030151 188.12727356 C-91.56395728 191.12583953 -94.93662326 192.96294917 -99.46875 193.734375 C-103.65135948 193.05149998 -106.42247001 191.06053863 -109.53125 188.234375 C-110.70131856 185.89423788 -110.86961406 184.21979548 -111.03125 181.609375 C-111.13953125 180.38347656 -111.13953125 180.38347656 -111.25 179.1328125 C-109.23231831 170.99629176 -99.42875935 164.07340838 -93.625 158.40625 C-92.2124998 157.01402507 -90.80001384 155.62178531 -89.38840485 154.22865677 C-85.93882514 150.82454288 -82.48509884 147.42486157 -79.015625 144.04101562 C-77.05485819 142.12803775 -75.10079321 140.20868189 -73.15393066 138.28155518 C-71.32650746 136.47295607 -69.48940526 134.67407546 -67.64196777 132.88592529 C-66.8236145 132.07117737 -66.00526123 131.25642944 -65.16210938 130.41699219 C-64.07126038 129.34732208 -64.07126038 129.34732208 -62.95837402 128.25604248 C-61.30045171 126.36584644 -61.30045171 126.36584644 -61.69763184 124.18756104 C-63.07178071 120.96789944 -64.71475941 117.89206737 -66.34375 114.796875 C-75.43455057 97.07497796 -78.35644303 77.78789532 -73.53125 58.234375 C-68.98329399 44.51988654 -62.53068876 33.69396493 -52.53125 23.234375 C-51.97824219 22.60660156 -51.42523438 21.97882813 -50.85546875 21.33203125 C-37.89542902 7.14995303 -18.53205408 1.23000359 0 0 Z " fill="#FEDE5A" transform="translate(418.53125,135.765625)"/>
<path d="M0 0 C12.31242648 9.83008243 20.18455547 22.25306977 22.421875 37.93359375 C23.68387319 53.34800025 20.05984561 66.57771542 10.421875 78.93359375 C5.55032736 84.53932853 0.85035289 88.33186565 -5.578125 91.93359375 C-5.58399124 91.12815125 -5.58985748 90.32270874 -5.59590149 89.49285889 C-5.65381783 81.90036518 -5.72588799 74.30820004 -5.81383991 66.7159996 C-5.85855773 62.81280331 -5.89781049 58.90971173 -5.92456055 55.00634766 C-5.95057984 51.2389922 -5.99097182 47.4720394 -6.04131126 43.70493317 C-6.05798942 42.2680894 -6.06949782 40.83117597 -6.07573891 39.39424896 C-6.08536872 37.38088447 -6.11512377 35.36764673 -6.14575195 33.35449219 C-6.15685501 32.20865662 -6.16795807 31.06282104 -6.17939758 29.88226318 C-6.62234991 26.60654166 -7.17796478 25.19085157 -9.578125 22.93359375 C-11.54433922 22.33988713 -11.54433922 22.33988713 -13.74243164 22.43188477 C-14.57662125 22.42250381 -15.41081085 22.41312286 -16.27027893 22.40345764 C-17.61569008 22.42030861 -17.61569008 22.42030861 -18.98828125 22.4375 C-19.91152695 22.43604477 -20.83477264 22.43458954 -21.78599548 22.43309021 C-23.73700111 22.43474992 -25.68801973 22.44631927 -27.63891602 22.46704102 C-30.63288661 22.49601885 -33.62508993 22.48764731 -36.61914062 22.47460938 C-38.51302948 22.48084589 -40.40691272 22.48923615 -42.30078125 22.5 C-43.19974625 22.49706436 -44.09871124 22.49412872 -45.0249176 22.49110413 C-45.85595505 22.5037883 -46.68699249 22.51647247 -47.54321289 22.52954102 C-48.64216637 22.53764549 -48.64216637 22.53764549 -49.76332092 22.5459137 C-51.99422686 22.80178521 -51.99422686 22.80178521 -53.578125 25.93359375 C-53.90830815 28.98743537 -53.90830815 28.98743537 -53.89697266 32.51635742 C-53.91204109 33.51187874 -53.91204109 33.51187874 -53.92741394 34.5275116 C-53.95827813 36.71885317 -53.97528968 38.9100724 -53.9921875 41.1015625 C-54.01089659 42.62186234 -54.03046981 44.14215176 -54.0508728 45.66242981 C-54.10222757 49.66215887 -54.14183526 53.66192161 -54.17901611 57.6618042 C-54.21903488 61.74402215 -54.2701369 65.82609961 -54.3203125 69.90820312 C-54.41711135 77.91657073 -54.50150334 85.9250078 -54.578125 93.93359375 C-55.85702974 93.31122158 -57.13400262 92.68487868 -58.41015625 92.05688477 C-59.12147705 91.70852066 -59.83279785 91.36015656 -60.56567383 91.00123596 C-71.67309979 85.10854302 -80.09544018 73.22377615 -83.8359375 61.47265625 C-84.08085937 60.63476562 -84.32578125 59.796875 -84.578125 58.93359375 C-84.80242187 58.28132813 -85.02671875 57.6290625 -85.2578125 56.95703125 C-89.03754493 44.78939946 -86.57395392 31.48393892 -81.29296875 20.18359375 C-72.93684372 5.28688061 -60.69621751 -3.95424585 -44.578125 -9.06640625 C-29.41597388 -12.76796427 -12.66001288 -8.91955453 0 0 Z " fill="#FDFEFD" transform="translate(453.578125,170.06640625)"/>
</svg>
