<svg version="1.1" id="Layer_1" xmlns="http://www.w3.org/2000/svg" xmlns:xlink="http://www.w3.org/1999/xlink" x="0px" y="0px"
	 width="100%" viewBox="0 0 1004 591" enable-background="new 0 0 1004 591" xml:space="preserve">
<path fill="#FFFFFF" opacity="1.000000" stroke="none" 
	d="
M737.000000,592.000000 
	C491.333344,592.000000 246.166672,592.000000 1.000000,592.000000 
	C1.000000,395.000000 1.000000,198.000000 1.000000,1.000000 
	C335.666656,1.000000 670.333313,1.000000 1005.000000,1.000000 
	C1005.000000,198.000000 1005.000000,395.000000 1005.000000,592.000000 
	C915.833313,592.000000 826.666687,592.000000 737.000000,592.000000 
M529.500000,96.999596 
	C452.427368,96.999596 375.354736,96.999596 298.316193,96.999596 
	C298.316193,214.385590 298.316193,330.962860 298.316193,447.596008 
	C426.327179,447.596008 554.021484,447.596008 681.683716,447.596008 
	C681.683716,330.614349 681.683716,214.037079 681.683716,96.999596 
	C631.079224,96.999596 580.789612,96.999596 529.500000,96.999596 
z"/>
<path fill="#FFDE59" opacity="1.000000" stroke="none" 
	d="
M530.000000,96.999596 
	C580.789612,96.999596 631.079224,96.999596 681.683716,96.999596 
	C681.683716,214.037079 681.683716,330.614349 681.683716,447.596008 
	C554.021484,447.596008 426.327179,447.596008 298.316193,447.596008 
	C298.316193,330.962860 298.316193,214.385590 298.316193,96.999596 
	C375.354736,96.999596 452.427368,96.999596 530.000000,96.999596 
M428.915314,291.049957 
	C428.940430,305.548553 428.937714,320.047241 428.996765,334.545685 
	C429.106964,361.603241 443.711273,383.050262 468.807953,393.064178 
	C496.157104,403.976807 523.640869,403.985748 551.118652,393.729797 
	C576.357361,384.309509 592.852051,362.089172 592.948364,337.044159 
	C593.121338,292.047852 593.018982,247.050430 592.991577,202.053513 
	C592.987305,195.034927 590.789734,192.503601 583.883057,192.333542 
	C573.723267,192.083389 563.549316,192.106689 553.388000,192.324234 
	C546.780457,192.465698 544.282288,195.347137 544.181152,202.140427 
	C544.106750,207.139008 544.164307,212.139526 544.162720,217.139191 
	C544.150513,254.469925 544.229736,291.801025 544.079529,329.131195 
	C544.021912,343.457764 535.501648,353.961700 521.496765,356.842529 
	C516.193787,357.933350 510.554565,358.219116 505.147278,357.816223 
	C489.385223,356.641754 478.375824,345.842773 478.001587,331.087524 
	C477.646820,317.100403 477.962219,303.096313 478.723541,288.981659 
	C520.588562,273.177002 540.977905,226.813171 524.081299,185.841446 
	C506.930573,144.253540 459.593597,125.478027 418.629608,144.319107 
	C398.619537,153.522598 384.658295,168.770782 377.459045,189.607254 
	C368.570160,215.333847 373.263641,239.373703 388.258392,261.990631 
	C379.067139,271.153412 369.979614,280.186066 360.923340,289.249939 
	C354.210754,295.968109 347.474121,302.664307 340.874542,309.492432 
	C337.303772,313.186890 336.491211,317.665985 338.448944,322.429413 
	C340.339386,327.029205 344.161987,330.084412 348.873169,329.510101 
	C352.649231,329.049866 356.890625,327.038757 359.636292,324.383026 
	C375.075775,309.449310 390.124969,294.112091 404.603394,279.617249 
	C413.068115,283.294891 420.940063,286.714996 428.915314,291.049957 
z"/>
<path fill="#FFFFFE" opacity="1.000000" stroke="none" 
	d="
M477.982910,289.099670 
	C477.962219,303.096313 477.646820,317.100403 478.001587,331.087524 
	C478.375824,345.842773 489.385223,356.641754 505.147278,357.816223 
	C510.554565,358.219116 516.193787,357.933350 521.496765,356.842529 
	C535.501648,353.961700 544.021912,343.457764 544.079529,329.131195 
	C544.229736,291.801025 544.150513,254.469925 544.162720,217.139191 
	C544.164307,212.139526 544.106750,207.139008 544.181152,202.140427 
	C544.282288,195.347137 546.780457,192.465698 553.388000,192.324234 
	C563.549316,192.106689 573.723267,192.083389 583.883057,192.333542 
	C590.789734,192.503601 592.987305,195.034927 592.991577,202.053513 
	C593.018982,247.050430 593.121338,292.047852 592.948364,337.044159 
	C592.852051,362.089172 576.357361,384.309509 551.118652,393.729797 
	C523.640869,403.985748 496.157104,403.976807 468.807953,393.064178 
	C443.711273,383.050262 429.106964,361.603241 428.996765,334.545685 
	C428.937714,320.047241 428.940430,305.548553 428.931305,290.115509 
	C428.904022,280.996613 428.860748,272.812134 428.873657,264.113708 
	C428.946930,243.311081 428.952148,223.022400 428.987183,202.733780 
	C429.001007,194.723663 431.292969,192.370300 439.410461,192.281250 
	C448.223419,192.184540 457.038269,192.248993 465.852295,192.261215 
	C475.414154,192.274475 477.797485,194.702499 477.825714,204.456055 
	C477.882080,223.911530 477.928162,243.367050 477.898071,263.296875 
	C477.872742,272.214020 477.927826,280.656860 477.982910,289.099670 
z"/>
<path fill="#0EC0DE" opacity="1.000000" stroke="none" 
	d="
M478.353210,289.040649 
	C477.927826,280.656860 477.872742,272.214020 478.203033,263.165344 
	C496.794647,251.315948 506.649109,235.058731 505.742371,213.602478 
	C504.138702,175.656021 466.965179,151.665878 431.485657,165.119003 
	C411.961243,172.522263 397.825165,192.633118 397.276276,213.787384 
	C396.706604,235.742188 409.300537,256.041931 428.817474,264.627686 
	C428.860748,272.812134 428.904022,280.996613 428.879669,289.658081 
	C420.940063,286.714996 413.068115,283.294891 404.603394,279.617249 
	C390.124969,294.112091 375.075775,309.449310 359.636292,324.383026 
	C356.890625,327.038757 352.649231,329.049866 348.873169,329.510101 
	C344.161987,330.084412 340.339386,327.029205 338.448944,322.429413 
	C336.491211,317.665985 337.303772,313.186890 340.874542,309.492432 
	C347.474121,302.664307 354.210754,295.968109 360.923340,289.249939 
	C369.979614,280.186066 379.067139,271.153412 388.258392,261.990631 
	C373.263641,239.373703 368.570160,215.333847 377.459045,189.607254 
	C384.658295,168.770782 398.619537,153.522598 418.629608,144.319107 
	C459.593597,125.478027 506.930573,144.253540 524.081299,185.841446 
	C540.977905,226.813171 520.588562,273.177002 478.353210,289.040649 
z"/>
<path fill="#FDDE5A" opacity="1.000000" stroke="none" 
	d="
M428.873657,264.113708 
	C409.300537,256.041931 396.706604,235.742188 397.276276,213.787384 
	C397.825165,192.633118 411.961243,172.522263 431.485657,165.119003 
	C466.965179,151.665878 504.138702,175.656021 505.742371,213.602478 
	C506.649109,235.058731 496.794647,251.315948 478.283447,262.690979 
	C477.928162,243.367050 477.882080,223.911530 477.825714,204.456055 
	C477.797485,194.702499 475.414154,192.274475 465.852295,192.261215 
	C457.038269,192.248993 448.223419,192.184540 439.410461,192.281250 
	C431.292969,192.370300 429.001007,194.723663 428.987183,202.733780 
	C428.952148,223.022400 428.946930,243.311081 428.873657,264.113708 
z"/>
</svg>