<svg version="1.1" id="Layer_1" xmlns="http://www.w3.org/2000/svg" xmlns:xlink="http://www.w3.org/1999/xlink" x="0px" y="0px"
	 width="100%" viewBox="0 0 1004 591" enable-background="new 0 0 1004 591" xml:space="preserve">
<path fill="#FFDE59" opacity="1.000000" stroke="none" 
	d="
M593.000000,592.000000 
	C395.333344,592.000000 198.166672,592.000000 1.000000,592.000000 
	C1.000000,395.000000 1.000000,198.000000 1.000000,1.000000 
	C335.666656,1.000000 670.333313,1.000000 1005.000000,1.000000 
	C1005.000000,198.000000 1005.000000,395.000000 1005.000000,592.000000 
	C867.833313,592.000000 730.666687,592.000000 593.000000,592.000000 
M141.773483,266.013947 
	C179.488922,251.998367 200.919067,215.280273 193.478760,177.422928 
	C185.427536,136.457245 150.499481,110.348083 108.472733,113.879852 
	C63.295120,117.676422 30.331118,161.910233 39.508995,206.205048 
	C41.903698,217.762497 46.456104,228.302002 53.367676,238.208878 
	C38.285210,253.232376 23.418674,268.028809 8.573854,282.847015 
	C7.163554,284.254822 5.712919,285.676666 4.585244,287.302948 
	C1.214610,292.163879 1.801926,298.410187 5.837309,302.376678 
	C10.187377,306.652496 16.435379,307.257599 21.341158,303.723816 
	C22.949270,302.565430 24.346701,301.095520 25.757334,299.684967 
	C40.593220,284.849701 55.412239,269.997559 69.720657,255.666168 
	C77.438347,259.250824 84.636284,262.594055 91.952660,266.875793 
	C91.972038,282.199249 91.853798,297.524384 92.042801,312.845734 
	C92.331764,336.269531 102.347656,354.704437 122.918922,365.772522 
	C156.550125,383.867279 191.040955,383.712646 224.703827,365.826263 
	C244.319595,355.403656 255.546890,338.128448 255.830017,315.658691 
	C256.402893,270.194061 256.053589,224.717499 256.020691,179.245880 
	C256.015411,171.979599 253.745178,169.906326 246.277374,169.867477 
	C237.782867,169.823257 229.287964,169.856003 220.793228,169.856766 
	C208.561859,169.857849 207.271408,171.122375 207.269882,183.170929 
	C207.266006,213.985153 207.279633,244.799393 207.262405,275.613617 
	C207.256363,286.439545 207.430527,297.273682 207.072296,308.089172 
	C206.650345,320.828552 198.320786,331.413635 185.804245,333.694672 
	C178.448990,335.035095 170.507721,335.113068 163.125549,333.924133 
	C149.947830,331.801758 141.327454,321.330963 141.013458,308.093018 
	C140.681870,294.113647 140.996384,280.118958 141.773483,266.013947 
M712.500000,374.002045 
	C736.985474,373.977356 761.473755,374.162628 785.955322,373.840851 
	C798.504028,373.675903 810.694519,371.251099 822.310486,366.056335 
	C859.967224,349.215942 861.696411,305.391968 845.312439,284.034637 
	C840.575073,277.859222 834.037354,273.064880 828.282593,267.597076 
	C830.046021,266.212372 832.684509,264.476501 834.926819,262.327332 
	C855.265076,242.834396 853.425903,204.739685 831.451355,186.365662 
	C818.046814,175.157425 802.210754,170.480957 785.267334,169.990417 
	C760.470581,169.272537 735.646301,169.499115 710.833557,169.351120 
	C704.171387,169.311371 697.499878,169.163849 690.848328,169.441574 
	C682.816101,169.776947 681.010803,171.855301 681.001892,179.871002 
	C680.985107,195.028778 680.996582,210.186569 680.996643,225.344360 
	C680.996765,271.484009 680.988403,317.623627 681.005371,363.763275 
	C681.008301,371.740753 683.150879,373.919983 691.012146,373.987549 
	C697.841003,374.046234 704.670654,374.001221 712.500000,374.002045 
M582.553467,170.922897 
	C578.076843,170.588989 573.601501,169.987473 569.123352,169.965866 
	C545.137939,169.850128 521.151733,169.853653 497.165833,169.870728 
	C487.959686,169.877289 486.119202,171.786377 486.115906,181.061203 
	C486.104889,211.876633 486.111053,242.692078 486.110809,273.507507 
	C486.110565,302.823792 486.106506,332.140106 486.112488,361.456390 
	C486.114716,372.318390 487.775177,374.000519 498.420837,374.002472 
	C506.416199,374.003937 514.411560,374.003662 522.406921,374.002563 
	C533.376770,374.001038 534.956482,372.395508 534.960938,361.206238 
	C534.966553,347.047791 535.082764,332.887695 534.883911,318.732025 
	C534.829895,314.889832 535.840637,313.540131 539.877258,313.561951 
	C551.193359,313.623108 562.527893,313.524841 573.825989,312.933044 
	C591.094543,312.028503 607.258301,307.511353 621.406555,297.019867 
	C652.806519,273.735596 651.505432,223.487198 633.838684,199.247726 
	C621.321716,182.073929 603.688232,174.252029 582.553467,170.922897 
M450.947815,198.426697 
	C450.937683,191.762024 451.068573,185.093246 450.875732,178.433868 
	C450.700989,172.399841 448.242920,170.038559 442.223389,169.923370 
	C435.394318,169.792679 428.561249,169.860352 421.729919,169.859863 
	C384.573334,169.857178 347.416718,169.842407 310.260132,169.873978 
	C301.424652,169.881485 299.510315,171.870346 299.363556,180.766052 
	C299.349823,181.598938 299.358215,182.432236 299.358215,183.265335 
	C299.358063,242.249359 299.357819,301.233368 299.359497,360.217407 
	C299.359528,361.716888 299.313904,363.220398 299.403687,364.715179 
	C299.823303,371.703705 302.018585,373.906342 308.998688,373.970886 
	C318.995148,374.063324 328.993073,374.016113 338.990326,373.994965 
	C346.571350,373.978943 348.067474,372.554626 348.084259,364.967468 
	C348.133301,342.806915 348.109772,320.646179 348.114532,298.485535 
	C348.114960,296.533203 348.114563,294.580872 348.114563,292.000977 
	C350.645844,292.000977 352.590179,292.001099 354.534515,292.001007 
	C379.027893,291.999725 403.521301,292.027832 428.014587,291.978119 
	C434.781006,291.964386 437.659393,289.783691 437.823792,284.033722 
	C438.076019,275.210938 438.029633,266.371277 437.803070,257.546631 
	C437.688690,253.091568 435.591370,249.898758 430.534058,249.718033 
	C428.374725,249.640869 426.218781,249.363922 424.061096,249.361481 
	C400.567474,249.334839 377.072815,249.231064 353.581116,249.444458 
	C349.108887,249.485077 347.855621,248.124039 348.020630,243.770370 
	C348.342285,235.284866 348.098511,226.778488 348.129700,218.280914 
	C348.135529,216.689407 348.331879,215.098587 348.465240,213.141876 
	C350.972870,213.141876 352.949707,213.141937 354.926544,213.141876 
	C383.418823,213.140839 411.911133,213.164978 440.403351,213.123260 
	C448.881775,213.110855 450.872742,210.997910 450.944550,202.395447 
	C450.952881,201.395798 450.946991,200.395996 450.947815,198.426697 
M877.788940,359.654633 
	C880.164429,368.494812 885.622803,374.782196 894.196960,377.759613 
	C905.110291,381.549255 916.158752,380.987122 926.947937,376.933868 
	C928.174011,376.473236 929.639709,374.857880 929.778625,373.639313 
	C930.165710,370.244171 929.913208,366.776123 929.913208,362.878082 
	C927.815552,363.648346 926.325989,364.504608 924.748657,364.720581 
	C918.213989,365.615265 911.622559,367.121735 905.109619,366.875946 
	C897.693909,366.596069 893.126282,359.588959 894.579163,352.166931 
	C907.265869,352.166931 920.033936,352.166931 933.160522,352.166931 
	C933.160522,348.337830 933.306885,344.877777 933.135010,341.433594 
	C932.428406,327.275665 924.295532,318.134674 910.817871,316.204529 
	C895.599854,314.025116 883.242371,320.704193 878.648621,333.782837 
	C875.763123,341.998199 875.558228,350.409302 877.788940,359.654633 
M976.175415,366.364105 
	C978.267395,369.765076 980.284973,373.215607 982.496399,376.537018 
	C983.163635,377.539062 984.343140,378.842773 985.332214,378.881683 
	C991.019043,379.105438 996.719177,378.990662 1003.188232,378.990662 
	C998.003296,371.197540 993.410522,364.286804 988.809937,357.381317 
	C982.157532,347.395996 982.160339,347.401154 988.662476,337.622437 
	C993.050415,331.023224 997.421021,324.412537 1002.298401,317.054169 
	C996.439026,317.054169 991.485718,316.763885 986.597412,317.200287 
	C984.703064,317.369446 982.350281,318.758636 981.252686,320.325195 
	C977.687439,325.413605 974.606323,330.841187 970.995422,336.695068 
	C967.238159,330.539825 964.046570,325.109924 960.612610,319.837830 
	C959.827271,318.632111 958.245605,317.253601 956.963196,317.183472 
	C951.565613,316.888306 946.142517,317.058655 939.783020,317.058655 
	C945.764343,326.152924 951.011230,334.600800 956.775085,342.679810 
	C959.345581,346.282776 959.121582,348.762543 956.629089,352.263184 
	C950.588684,360.746643 945.023499,369.568420 938.767151,379.007721 
	C944.594604,379.007721 949.545715,379.294281 954.433777,378.863861 
	C956.336243,378.696381 958.726379,377.348450 959.807617,375.786041 
	C963.643005,370.244263 967.009399,364.377930 970.941711,358.005402 
	C972.867126,361.037537 974.352600,363.376831 976.175415,366.364105 
z"/>
<path fill="#FFFFFE" opacity="1.000000" stroke="none" 
	d="
M712.000000,374.002045 
	C704.670654,374.001221 697.841003,374.046234 691.012146,373.987549 
	C683.150879,373.919983 681.008301,371.740753 681.005371,363.763275 
	C680.988403,317.623627 680.996765,271.484009 680.996643,225.344360 
	C680.996582,210.186569 680.985107,195.028778 681.001892,179.871002 
	C681.010803,171.855301 682.816101,169.776947 690.848328,169.441574 
	C697.499878,169.163849 704.171387,169.311371 710.833557,169.351120 
	C735.646301,169.499115 760.470581,169.272537 785.267334,169.990417 
	C802.210754,170.480957 818.046814,175.157425 831.451355,186.365662 
	C853.425903,204.739685 855.265076,242.834396 834.926819,262.327332 
	C832.684509,264.476501 830.046021,266.212372 828.282593,267.597076 
	C834.037354,273.064880 840.575073,277.859222 845.312439,284.034637 
	C861.696411,305.391968 859.967224,349.215942 822.310486,366.056335 
	C810.694519,371.251099 798.504028,373.675903 785.955322,373.840851 
	C761.473755,374.162628 736.985474,373.977356 712.000000,374.002045 
M763.935181,256.991180 
	C764.069519,251.832687 767.049500,249.517319 771.878235,249.263718 
	C775.867432,249.054214 779.882812,249.244553 783.859985,248.925293 
	C795.403687,247.998581 802.553955,241.259125 802.639832,231.448242 
	C802.736450,220.401215 797.369690,214.553467 784.765991,213.957153 
	C768.483032,213.186768 752.150269,213.529465 735.849487,213.040085 
	C731.081909,212.896957 729.671875,214.224899 729.700317,219.088959 
	C729.904907,254.067001 729.809387,289.046783 729.809204,324.026001 
	C729.809143,325.808289 729.809204,327.590576 729.809204,330.000000 
	C736.357056,330.000000 742.303345,330.087219 748.246277,329.982391 
	C762.052734,329.738922 775.893799,329.912689 789.650757,328.932892 
	C799.541504,328.228516 805.267822,321.033905 805.757202,311.035461 
	C806.253662,300.892181 801.335327,294.072632 791.105469,292.099060 
	C785.447632,291.007599 779.540894,291.141876 773.739441,290.874878 
	C766.104370,290.523468 763.971008,288.463104 763.925842,280.881287 
	C763.880127,273.219452 763.918762,265.557129 763.935181,256.991180 
z"/>
<path fill="#FFFFFE" opacity="1.000000" stroke="none" 
	d="
M141.028625,266.130981 
	C140.996384,280.118958 140.681870,294.113647 141.013458,308.093018 
	C141.327454,321.330963 149.947830,331.801758 163.125549,333.924133 
	C170.507721,335.113068 178.448990,335.035095 185.804245,333.694672 
	C198.320786,331.413635 206.650345,320.828552 207.072296,308.089172 
	C207.430527,297.273682 207.256363,286.439545 207.262405,275.613617 
	C207.279633,244.799393 207.266006,213.985153 207.269882,183.170929 
	C207.271408,171.122375 208.561859,169.857849 220.793228,169.856766 
	C229.287964,169.856003 237.782867,169.823257 246.277374,169.867477 
	C253.745178,169.906326 256.015411,171.979599 256.020691,179.245880 
	C256.053589,224.717499 256.402893,270.194061 255.830017,315.658691 
	C255.546890,338.128448 244.319595,355.403656 224.703827,365.826263 
	C191.040955,383.712646 156.550125,383.867279 122.918922,365.772522 
	C102.347656,354.704437 92.331764,336.269531 92.042801,312.845734 
	C91.853798,297.524384 91.972038,282.199249 91.953903,265.944397 
	C91.915070,256.658417 91.875000,248.303864 91.891167,239.487518 
	C91.966599,219.073517 91.951630,199.121155 92.023567,179.169113 
	C92.048683,172.201614 94.358131,169.932083 101.352036,169.879364 
	C110.496437,169.810425 119.641747,169.857651 128.786667,169.861465 
	C139.072861,169.865753 140.798218,171.630402 140.833252,182.148163 
	C140.897461,201.432129 140.963699,220.716110 140.951675,240.463394 
	C140.925720,249.328140 140.977173,257.729553 141.028625,266.130981 
z"/>
<path fill="#FFFFFE" opacity="1.000000" stroke="none" 
	d="
M582.994019,170.959244 
	C603.688232,174.252029 621.321716,182.073929 633.838684,199.247726 
	C651.505432,223.487198 652.806519,273.735596 621.406555,297.019867 
	C607.258301,307.511353 591.094543,312.028503 573.825989,312.933044 
	C562.527893,313.524841 551.193359,313.623108 539.877258,313.561951 
	C535.840637,313.540131 534.829895,314.889832 534.883911,318.732025 
	C535.082764,332.887695 534.966553,347.047791 534.960938,361.206238 
	C534.956482,372.395508 533.376770,374.001038 522.406921,374.002563 
	C514.411560,374.003662 506.416199,374.003937 498.420837,374.002472 
	C487.775177,374.000519 486.114716,372.318390 486.112488,361.456390 
	C486.106506,332.140106 486.110565,302.823792 486.110809,273.507507 
	C486.111053,242.692078 486.104889,211.876633 486.115906,181.061203 
	C486.119202,171.786377 487.959686,169.877289 497.165833,169.870728 
	C521.151733,169.853653 545.137939,169.850128 569.123352,169.965866 
	C573.601501,169.987473 578.076843,170.588989 582.994019,170.959244 
M596.380371,229.364578 
	C591.155579,219.072449 582.033264,214.756058 571.221924,214.071167 
	C560.780823,213.409744 550.269836,213.932449 539.802063,213.571091 
	C535.637024,213.427322 534.850281,215.070801 534.889465,218.793854 
	C535.055969,234.593445 534.952026,250.395813 534.973938,266.197113 
	C534.976135,267.787994 535.160461,269.378632 535.269104,271.109680 
	C547.636658,271.109680 559.471069,271.762085 571.207886,270.969604 
	C593.493042,269.464844 604.706970,251.041489 596.380371,229.364578 
z"/>
<path fill="#FFFFFE" opacity="1.000000" stroke="none" 
	d="
M450.947754,198.911484 
	C450.946991,200.395996 450.952881,201.395798 450.944550,202.395447 
	C450.872742,210.997910 448.881775,213.110855 440.403351,213.123260 
	C411.911133,213.164978 383.418823,213.140839 354.926544,213.141876 
	C352.949707,213.141937 350.972870,213.141876 348.465240,213.141876 
	C348.331879,215.098587 348.135529,216.689407 348.129700,218.280914 
	C348.098511,226.778488 348.342285,235.284866 348.020630,243.770370 
	C347.855621,248.124039 349.108887,249.485077 353.581116,249.444458 
	C377.072815,249.231064 400.567474,249.334839 424.061096,249.361481 
	C426.218781,249.363922 428.374725,249.640869 430.534058,249.718033 
	C435.591370,249.898758 437.688690,253.091568 437.803070,257.546631 
	C438.029633,266.371277 438.076019,275.210938 437.823792,284.033722 
	C437.659393,289.783691 434.781006,291.964386 428.014587,291.978119 
	C403.521301,292.027832 379.027893,291.999725 354.534515,292.001007 
	C352.590179,292.001099 350.645844,292.000977 348.114563,292.000977 
	C348.114563,294.580872 348.114960,296.533203 348.114532,298.485535 
	C348.109772,320.646179 348.133301,342.806915 348.084259,364.967468 
	C348.067474,372.554626 346.571350,373.978943 338.990326,373.994965 
	C328.993073,374.016113 318.995148,374.063324 308.998688,373.970886 
	C302.018585,373.906342 299.823303,371.703705 299.403687,364.715179 
	C299.313904,363.220398 299.359528,361.716888 299.359497,360.217407 
	C299.357819,301.233368 299.358063,242.249359 299.358215,183.265335 
	C299.358215,182.432236 299.349823,181.598938 299.363556,180.766052 
	C299.510315,171.870346 301.424652,169.881485 310.260132,169.873978 
	C347.416718,169.842407 384.573334,169.857178 421.729919,169.859863 
	C428.561249,169.860352 435.394318,169.792679 442.223389,169.923370 
	C448.242920,170.038559 450.700989,172.399841 450.875732,178.433868 
	C451.068573,185.093246 450.937683,191.762024 450.947754,198.911484 
z"/>
<path fill="#0EC0DE" opacity="1.000000" stroke="none" 
	d="
M141.401062,266.072449 
	C140.977173,257.729553 140.925720,249.328140 141.286499,240.381271 
	C164.025833,226.860733 174.444641,205.062469 169.807724,181.026016 
	C165.061508,156.423080 143.165039,137.986862 117.784683,137.224091 
	C92.757965,136.471939 70.259178,153.722839 63.851559,178.577209 
	C57.594925,202.845901 69.230415,228.364410 91.834930,239.949295 
	C91.875000,248.303864 91.915070,256.658417 91.894684,265.475159 
	C84.636284,262.594055 77.438347,259.250824 69.720657,255.666168 
	C55.412239,269.997559 40.593220,284.849701 25.757334,299.684967 
	C24.346701,301.095520 22.949270,302.565430 21.341158,303.723816 
	C16.435379,307.257599 10.187377,306.652496 5.837309,302.376678 
	C1.801926,298.410187 1.214610,292.163879 4.585244,287.302948 
	C5.712919,285.676666 7.163554,284.254822 8.573854,282.847015 
	C23.418674,268.028809 38.285210,253.232376 53.367676,238.208878 
	C46.456104,228.302002 41.903698,217.762497 39.508995,206.205048 
	C30.331118,161.910233 63.295120,117.676422 108.472733,113.879852 
	C150.499481,110.348083 185.427536,136.457245 193.478760,177.422928 
	C200.919067,215.280273 179.488922,251.998367 141.401062,266.072449 
z"/>
<path fill="#10C0DD" opacity="1.000000" stroke="none" 
	d="
M877.656250,359.267426 
	C875.558228,350.409302 875.763123,341.998199 878.648621,333.782837 
	C883.242371,320.704193 895.599854,314.025116 910.817871,316.204529 
	C924.295532,318.134674 932.428406,327.275665 933.135010,341.433594 
	C933.306885,344.877777 933.160522,348.337830 933.160522,352.166931 
	C920.033936,352.166931 907.265869,352.166931 894.579163,352.166931 
	C893.126282,359.588959 897.693909,366.596069 905.109619,366.875946 
	C911.622559,367.121735 918.213989,365.615265 924.748657,364.720581 
	C926.325989,364.504608 927.815552,363.648346 929.913208,362.878082 
	C929.913208,366.776123 930.165710,370.244171 929.778625,373.639313 
	C929.639709,374.857880 928.174011,376.473236 926.947937,376.933868 
	C916.158752,380.987122 905.110291,381.549255 894.196960,377.759613 
	C885.622803,374.782196 880.164429,368.494812 877.656250,359.267426 
M917.164917,338.794586 
	C915.822937,331.280853 911.598938,327.594666 904.835510,328.034943 
	C898.350952,328.457092 894.628601,332.847870 894.198730,340.947632 
	C901.462646,340.947632 908.713257,340.968048 915.963074,340.893951 
	C916.372620,340.889801 916.774292,340.109131 917.164917,338.794586 
z"/>
<path fill="#10C0DD" opacity="1.000000" stroke="none" 
	d="
M976.006714,366.040100 
	C974.352600,363.376831 972.867126,361.037537 970.941711,358.005402 
	C967.009399,364.377930 963.643005,370.244263 959.807617,375.786041 
	C958.726379,377.348450 956.336243,378.696381 954.433777,378.863861 
	C949.545715,379.294281 944.594604,379.007721 938.767151,379.007721 
	C945.023499,369.568420 950.588684,360.746643 956.629089,352.263184 
	C959.121582,348.762543 959.345581,346.282776 956.775085,342.679810 
	C951.011230,334.600800 945.764343,326.152924 939.783020,317.058655 
	C946.142517,317.058655 951.565613,316.888306 956.963196,317.183472 
	C958.245605,317.253601 959.827271,318.632111 960.612610,319.837830 
	C964.046570,325.109924 967.238159,330.539825 970.995422,336.695068 
	C974.606323,330.841187 977.687439,325.413605 981.252686,320.325195 
	C982.350281,318.758636 984.703064,317.369446 986.597412,317.200287 
	C991.485718,316.763885 996.439026,317.054169 1002.298401,317.054169 
	C997.421021,324.412537 993.050415,331.023224 988.662476,337.622437 
	C982.160339,347.401154 982.157532,347.395996 988.809937,357.381317 
	C993.410522,364.286804 998.003296,371.197540 1003.188232,378.990662 
	C996.719177,378.990662 991.019043,379.105438 985.332214,378.881683 
	C984.343140,378.842773 983.163635,377.539062 982.496399,376.537018 
	C980.284973,373.215607 978.267395,369.765076 976.006714,366.040100 
z"/>
<path fill="#FFDE5A" opacity="1.000000" stroke="none" 
	d="
M763.927795,257.443115 
	C763.918762,265.557129 763.880127,273.219452 763.925842,280.881287 
	C763.971008,288.463104 766.104370,290.523468 773.739441,290.874878 
	C779.540894,291.141876 785.447632,291.007599 791.105469,292.099060 
	C801.335327,294.072632 806.253662,300.892181 805.757202,311.035461 
	C805.267822,321.033905 799.541504,328.228516 789.650757,328.932892 
	C775.893799,329.912689 762.052734,329.738922 748.246277,329.982391 
	C742.303345,330.087219 736.357056,330.000000 729.809204,330.000000 
	C729.809204,327.590576 729.809143,325.808289 729.809204,324.026001 
	C729.809387,289.046783 729.904907,254.067001 729.700317,219.088959 
	C729.671875,214.224899 731.081909,212.896957 735.849487,213.040085 
	C752.150269,213.529465 768.483032,213.186768 784.765991,213.957153 
	C797.369690,214.553467 802.736450,220.401215 802.639832,231.448242 
	C802.553955,241.259125 795.403687,247.998581 783.859985,248.925293 
	C779.882812,249.244553 775.867432,249.054214 771.878235,249.263718 
	C767.049500,249.517319 764.069519,251.832687 763.927795,257.443115 
z"/>
<path fill="#FDDE5A" opacity="1.000000" stroke="none" 
	d="
M91.891167,239.487518 
	C69.230415,228.364410 57.594925,202.845901 63.851559,178.577209 
	C70.259178,153.722839 92.757965,136.471939 117.784683,137.224091 
	C143.165039,137.986862 165.061508,156.423080 169.807724,181.026016 
	C174.444641,205.062469 164.025833,226.860733 141.363907,239.917953 
	C140.963699,220.716110 140.897461,201.432129 140.833252,182.148163 
	C140.798218,171.630402 139.072861,169.865753 128.786667,169.861465 
	C119.641747,169.857651 110.496437,169.810425 101.352036,169.879364 
	C94.358131,169.932083 92.048683,172.201614 92.023567,179.169113 
	C91.951630,199.121155 91.966599,219.073517 91.891167,239.487518 
z"/>
<path fill="#FFDE59" opacity="1.000000" stroke="none" 
	d="
M596.560303,229.704758 
	C604.706970,251.041489 593.493042,269.464844 571.207886,270.969604 
	C559.471069,271.762085 547.636658,271.109680 535.269104,271.109680 
	C535.160461,269.378632 534.976135,267.787994 534.973938,266.197113 
	C534.952026,250.395813 535.055969,234.593445 534.889465,218.793854 
	C534.850281,215.070801 535.637024,213.427322 539.802063,213.571091 
	C550.269836,213.932449 560.780823,213.409744 571.221924,214.071167 
	C582.033264,214.756058 591.155579,219.072449 596.560303,229.704758 
z"/>
<path fill="#FBDD5B" opacity="1.000000" stroke="none" 
	d="
M917.172302,339.242218 
	C916.774292,340.109131 916.372620,340.889801 915.963074,340.893951 
	C908.713257,340.968048 901.462646,340.947632 894.198730,340.947632 
	C894.628601,332.847870 898.350952,328.457092 904.835510,328.034943 
	C911.598938,327.594666 915.822937,331.280853 917.172302,339.242218 
z"/>
</svg>